<svg width="26" height="26" viewBox="0 0 26 26" fill="none" xmlns="http://www.w3.org/2000/svg">
<g clip-path="url(#clip0_1242_21093)">
<path d="M2.85792 12.5778C3.22485 12.8736 3.4116 13.2558 3.50538 13.7109C3.52867 13.9977 3.53023 14.2837 3.53137 14.5714C3.53222 14.6538 3.53314 14.7361 3.53413 14.8185C3.53652 15.0337 3.53805 15.249 3.53938 15.4642C3.5409 15.6844 3.54326 15.9047 3.54555 16.125C3.5499 16.5559 3.55333 16.9869 3.55616 17.4179C3.58298 17.3936 3.60981 17.3694 3.63744 17.3444C3.6732 17.3125 3.70896 17.2806 3.7458 17.2477C3.781 17.2161 3.8162 17.1845 3.85247 17.152C4.31428 16.7759 4.86316 16.7561 5.43507 16.8085C5.62063 16.8532 5.77819 16.9159 5.94288 17.0116C6.00666 17.0483 6.00666 17.0483 6.07173 17.0858C6.32679 17.2571 6.52493 17.4953 6.73396 17.718C6.83036 17.8188 6.92718 17.9191 7.02396 18.0194C7.17545 18.1767 7.32634 18.3344 7.47509 18.4942C8.15628 19.2683 8.15628 19.2683 9.09596 19.5948C9.19594 19.5983 9.29598 19.6 9.396 19.6015C9.55624 19.6342 9.7083 19.6809 9.86256 19.7348C9.91849 19.7541 9.91849 19.7541 9.97555 19.7737C10.6519 20.0197 11.1743 20.421 11.6812 20.9218C11.7169 20.9539 11.7526 20.986 11.7895 21.019C12.2677 21.4585 12.6933 22.1052 12.9507 22.6991C12.9507 22.7494 12.9507 22.7997 12.9507 22.8515C12.9842 22.8515 13.0177 22.8515 13.0523 22.8515C13.0594 22.7989 13.0594 22.7989 13.0667 22.7452C13.3219 21.7077 14.4191 20.6552 15.2967 20.1155C15.7913 19.8294 16.4005 19.5769 16.9728 19.5403C17.4944 19.5035 17.7389 19.3117 18.0836 18.9372C18.1335 18.8854 18.1837 18.8338 18.234 18.7823C18.3651 18.6475 18.4943 18.5111 18.6231 18.3741C18.8294 18.1552 19.0381 17.9385 19.2474 17.7224C19.3194 17.6474 19.3905 17.5716 19.4615 17.4955C19.8692 17.0696 20.2685 16.8088 20.867 16.7937C21.408 16.7887 21.8031 16.8791 22.2437 17.2148C22.312 17.2819 22.3798 17.3495 22.4468 17.4179C22.4471 17.3726 22.4474 17.3273 22.4477 17.2806C22.4506 16.8518 22.4543 16.423 22.4588 15.9942C22.461 15.7738 22.463 15.5534 22.4644 15.333C22.4657 15.1199 22.4678 14.9069 22.4703 14.6939C22.4711 14.613 22.4717 14.532 22.4721 14.4511C22.4748 13.8105 22.5234 13.2523 22.9546 12.746C23.3811 12.3324 23.7935 12.212 24.3789 12.2169C24.8377 12.2337 25.1706 12.3823 25.5028 12.6956C25.8515 13.0772 26.0172 13.4448 26.0154 13.9647C26.0157 14.0043 26.0159 14.0439 26.0162 14.0847C26.0169 14.2153 26.0169 14.3458 26.0167 14.4764C26.0169 14.5681 26.0172 14.6599 26.0174 14.7516C26.0178 14.9442 26.0178 15.1367 26.0175 15.3293C26.0172 15.5733 26.0181 15.8173 26.0192 16.0613C26.02 16.2511 26.02 16.4409 26.0199 16.6308C26.0199 16.7206 26.0202 16.8103 26.0207 16.9001C26.0249 17.7307 25.9396 18.5377 25.6841 19.3317C25.6688 19.3804 25.6535 19.4291 25.6378 19.4792C25.4551 20.0468 25.2516 20.5986 24.8843 21.0741C24.6939 21.1693 24.4817 21.1584 24.2749 21.1249C24.1307 21.0386 24.1049 20.9768 24.021 20.8202C23.9911 20.4952 24.053 20.3035 24.2051 20.0204C24.9078 18.6185 24.9446 17.1168 24.9445 15.5809C24.9446 15.3823 24.9455 15.1838 24.9465 14.9853C24.9466 14.8582 24.9467 14.7312 24.9468 14.6041C24.9473 14.5157 24.9473 14.5157 24.9479 14.4255C24.9507 13.9045 24.9507 13.9045 24.7066 13.4601C24.5282 13.3274 24.3563 13.3252 24.1396 13.3375C23.9795 13.3616 23.8875 13.3983 23.7671 13.5077C23.6242 13.7434 23.5958 13.9193 23.596 14.1931C23.5958 14.2299 23.5956 14.2668 23.5954 14.3048C23.5951 14.3845 23.5951 14.4642 23.5955 14.544C23.5959 14.6709 23.5954 14.7979 23.5946 14.9248C23.5926 15.2857 23.5925 15.6466 23.5926 16.0074C23.5926 16.2287 23.5916 16.45 23.5901 16.6713C23.5896 16.7949 23.5902 16.9185 23.5908 17.0422C23.5892 17.713 23.4895 18.3643 23.1672 18.9636C23.144 19.0104 23.144 19.0104 23.1203 19.0583C22.8182 19.6436 22.3294 20.0886 21.8682 20.5473C21.7972 20.6182 21.7262 20.6892 21.6552 20.7601C21.5073 20.908 21.3592 21.0556 21.211 21.2032C21.0208 21.3925 20.831 21.5822 20.6412 21.772C20.4951 21.9181 20.3488 22.0641 20.2025 22.21C20.1324 22.28 20.0623 22.3499 19.9923 22.42C19.8948 22.5173 19.7972 22.6145 19.6995 22.7116C19.656 22.7552 19.656 22.7552 19.6116 22.7996C19.4304 22.9793 19.3342 23.0625 19.0794 23.0737C18.8929 23.0713 18.8483 23.0596 18.689 22.9467C18.5741 22.7816 18.5366 22.6969 18.5366 22.496C18.6332 22.2161 18.7663 22.035 18.9797 21.8292C19.0088 21.8003 19.0379 21.7715 19.0678 21.7417C19.1306 21.6795 19.1936 21.6176 19.2568 21.5559C19.357 21.4581 19.4565 21.3597 19.5558 21.2612C19.7309 21.0877 19.9066 20.9148 20.0824 20.7421C20.3641 20.4653 20.6453 20.1882 20.9258 19.9103C21.0238 19.8135 21.1222 19.7172 21.2207 19.6209C21.2808 19.5615 21.3409 19.5021 21.4009 19.4427C21.4283 19.4161 21.4557 19.3896 21.484 19.3622C21.6982 19.1487 21.7767 18.9929 21.8057 18.6938C21.7988 18.4666 21.7273 18.3037 21.5835 18.1288C21.388 17.9674 21.2292 17.8799 20.9741 17.8749C20.5196 17.9408 20.2495 18.2572 19.9464 18.5718C19.893 18.626 19.8395 18.6802 19.7859 18.7343C19.6458 18.8762 19.5066 19.0188 19.3676 19.1617C19.1446 19.3908 18.9202 19.6186 18.6958 19.8464C18.6177 19.9258 18.5401 20.0056 18.4625 20.0855C18.4147 20.1343 18.367 20.1831 18.3192 20.2319C18.2777 20.2745 18.2362 20.3171 18.1935 20.361C17.9638 20.5703 17.7555 20.5841 17.4544 20.6076C16.5201 20.6979 15.7482 21.0696 15.0835 21.7343C15.0443 21.7735 15.0051 21.8127 14.9647 21.8531C14.1188 22.7453 13.6738 23.9184 13.5922 25.13C13.5723 25.419 13.5405 25.667 13.3823 25.9174C13.1806 26.0486 12.9806 26.0437 12.7476 25.9999C12.5959 25.8916 12.5142 25.8214 12.4647 25.6399C12.4405 25.4759 12.4262 25.3125 12.4127 25.1474C12.2909 23.6998 11.6863 22.3315 10.564 21.3788C9.86891 20.8753 9.12447 20.6191 8.27168 20.5937C7.98286 20.5393 7.77935 20.3333 7.58002 20.1281C7.53475 20.0819 7.48948 20.0356 7.44284 19.988C7.41911 19.9635 7.39538 19.939 7.37093 19.9138C7.29581 19.8364 7.22026 19.7594 7.14459 19.6826C6.92962 19.4642 6.71508 19.2455 6.50161 19.0256C6.37055 18.8907 6.23873 18.7566 6.10643 18.6229C6.05648 18.5721 6.00682 18.5211 5.95746 18.4698C5.56027 18.0549 5.56027 18.0549 5.02882 17.8749C4.75816 17.8976 4.56073 17.9821 4.36866 18.1796C4.21892 18.4068 4.16626 18.6236 4.21632 18.8906C4.32192 19.1402 4.46651 19.3128 4.65938 19.4984C4.68846 19.527 4.71754 19.5556 4.7475 19.5851C4.81035 19.6469 4.87336 19.7085 4.93653 19.7699C5.0366 19.8673 5.13612 19.9653 5.2355 20.0634C5.51801 20.3422 5.80136 20.6201 6.08539 20.8974C6.25941 21.0673 6.43267 21.238 6.60549 21.4091C6.67131 21.474 6.73741 21.5386 6.80381 21.6028C6.89679 21.6929 6.98877 21.7838 7.08061 21.875C7.12173 21.9141 7.12173 21.9141 7.16367 21.954C7.36203 22.154 7.42453 22.3181 7.46632 22.5976C7.41899 22.8087 7.34488 22.9324 7.16163 23.0546C7.00275 23.09 6.86428 23.084 6.7046 23.0546C6.61625 22.998 6.61625 22.998 6.52955 22.9177C6.4944 22.8852 6.45924 22.8528 6.42302 22.8193C6.14802 22.5543 5.87547 22.2869 5.60467 22.0176C5.55547 21.9687 5.55547 21.9687 5.50528 21.9188C5.33186 21.7464 5.1586 21.5739 4.98546 21.4012C4.80788 21.2242 4.62971 21.0478 4.45141 20.8715C4.31318 20.7346 4.1754 20.5973 4.03775 20.4598C3.97231 20.3946 3.9067 20.3296 3.84091 20.2647C2.96713 19.4028 2.4263 18.4179 2.4124 17.1676C2.41222 17.0893 2.41234 17.0111 2.41275 16.9328C2.4134 16.8078 2.41281 16.6829 2.41193 16.558C2.41059 16.3381 2.41029 16.1183 2.41037 15.8985C2.41048 15.5451 2.40975 15.1919 2.40754 14.8386C2.40705 14.7161 2.40748 14.5936 2.40798 14.4711C2.40767 14.3957 2.40732 14.3203 2.40692 14.2449C2.40697 14.1796 2.40702 14.1143 2.40707 14.047C2.38131 13.7962 2.32005 13.5868 2.13111 13.4094C1.88621 13.3208 1.62016 13.2882 1.37713 13.4C1.17508 13.5505 1.10777 13.7263 1.06788 13.9648C1.05408 14.1774 1.05485 14.3893 1.05618 14.6023C1.0562 14.664 1.05622 14.7257 1.05625 14.7893C1.0564 14.9198 1.0568 15.0503 1.05743 15.1808C1.05835 15.3779 1.05847 15.5749 1.05846 15.7719C1.04946 17.0151 1.04946 17.0151 1.20118 18.2463C1.21433 18.3127 1.21433 18.3127 1.22774 18.3804C1.58972 20.1012 2.55895 21.4207 3.78894 22.6349C3.8923 22.7369 3.99531 22.8393 4.09825 22.9417C4.31611 23.1584 4.53437 23.3747 4.75269 23.591C5.00754 23.8434 5.26222 24.0961 5.51648 24.3491C5.61783 24.4498 5.71948 24.5502 5.82114 24.6505C5.883 24.712 5.94484 24.7735 6.00667 24.835C6.03486 24.8627 6.06306 24.8904 6.09211 24.9189C6.27353 25.1003 6.38561 25.2302 6.41895 25.4858C6.3949 25.6862 6.32086 25.7922 6.19679 25.9491C6.01404 26.0405 5.83692 26.0337 5.63819 25.9999C5.55033 25.9444 5.55033 25.9444 5.46436 25.8646C5.41165 25.8159 5.41165 25.8159 5.35787 25.7661C5.31631 25.726 5.27476 25.6858 5.23194 25.6445C5.20736 25.6207 5.18279 25.597 5.15747 25.5725C4.94176 25.3636 4.72857 25.1521 4.51565 24.9403C4.48155 24.9064 4.44745 24.8725 4.41232 24.8376C4.23163 24.6579 4.05111 24.4781 3.8707 24.2982C3.68667 24.1147 3.50204 23.9319 3.31727 23.7491C3.17327 23.6064 3.02974 23.4633 2.88632 23.3201C2.81859 23.2526 2.75068 23.1853 2.68259 23.1181C2.07114 22.5147 1.49727 21.8603 1.0774 21.1059C1.05497 21.0661 1.03254 21.0263 1.00942 20.9853C0.295832 19.6912 -0.0143649 18.3146 -0.0155863 16.8444C-0.0159135 16.7509 -0.0162552 16.6575 -0.0166107 16.564C-0.0172148 16.3693 -0.0174074 16.1745 -0.0173468 15.9798C-0.0173364 15.7313 -0.0187284 15.4829 -0.0204722 15.2345C-0.0216055 15.0419 -0.0218072 14.8493 -0.0217536 14.6567C-0.0218727 14.5651 -0.0223175 14.4736 -0.0231077 14.382C-0.0286357 13.676 0.0303301 13.187 0.537453 12.6548C1.19984 12.058 2.14481 12.0966 2.85792 12.5778Z" fill="white"/>
<path d="M15.1851 0.457261C15.2307 0.479059 15.2763 0.500857 15.3233 0.523316C16.1058 0.922974 16.7256 1.51125 17.2163 2.2346C17.243 2.27244 17.2696 2.31028 17.2971 2.34926C17.6467 2.88155 17.9034 3.58191 17.978 4.21507C17.9835 4.2607 17.989 4.30632 17.9947 4.35333C18.1399 5.74246 17.7751 7.07264 16.8958 8.16292C16.7999 8.26727 16.7999 8.26727 16.8101 8.37914C16.8923 8.44052 16.8923 8.44052 17.0005 8.50291C17.2982 8.69482 17.5497 8.93022 17.8046 9.17398C17.8688 9.23507 17.9339 9.29515 17.9991 9.35509C18.7782 10.0929 19.32 11.1091 19.603 12.1369C19.6197 12.1962 19.6364 12.2554 19.6536 12.3165C19.734 12.6277 19.7993 12.8915 19.7046 13.2034C19.5689 13.3571 19.4818 13.4424 19.2783 13.4793C19.1305 13.4866 18.9849 13.4858 18.837 13.4821C18.7833 13.4817 18.7296 13.4813 18.6743 13.481C18.5036 13.4795 18.3329 13.4764 18.1621 13.4731C18.0461 13.4719 17.93 13.4707 17.814 13.4697C17.5301 13.4669 17.2463 13.4626 16.9624 13.4573C16.9631 13.52 16.9637 13.5827 16.9644 13.6474C16.965 13.7305 16.9655 13.8137 16.966 13.8968C16.9667 13.9587 16.9667 13.9587 16.9674 14.0219C16.9719 14.9956 16.3373 15.6076 15.6896 16.2632C15.6477 16.3053 15.6057 16.3475 15.5626 16.3909C15.4957 16.4582 15.4957 16.4582 15.4274 16.5269C15.3339 16.6209 15.2403 16.7148 15.1467 16.8087C15.004 16.9518 14.8619 17.0955 14.7198 17.2392C14.6284 17.3309 14.5369 17.4227 14.4454 17.5144C14.4034 17.557 14.3614 17.5997 14.3181 17.6436C13.9015 18.0586 13.55 18.3005 12.9507 18.3323C12.2906 18.3028 11.8891 17.7944 11.4505 17.3551C11.3948 17.2996 11.339 17.2441 11.2833 17.1886C11.167 17.0727 11.051 16.9567 10.9351 16.8405C10.7874 16.6925 10.639 16.545 10.4905 16.3977C10.3755 16.2834 10.2608 16.1687 10.1462 16.0539C10.0916 15.9994 10.037 15.9451 9.98223 15.8908C9.47416 15.3869 9.04259 14.8619 9.03218 14.1081C9.03274 14.0361 9.03375 13.9641 9.03519 13.8921C9.03558 13.8549 9.03597 13.8178 9.03636 13.7795C9.03736 13.689 9.0389 13.5985 9.04055 13.508C8.99576 13.5079 8.99576 13.5079 8.95006 13.5078C8.63864 13.5068 8.32727 13.5041 8.01587 13.5003C7.89974 13.4991 7.78359 13.4984 7.66745 13.4981C7.50027 13.4976 7.33317 13.4956 7.16601 13.4932C7.11426 13.4934 7.06252 13.4936 7.0092 13.4938C6.77917 13.4891 6.60468 13.4849 6.41861 13.3402C6.2657 13.1662 6.23878 13.0216 6.24758 12.7971C6.26298 12.6571 6.29188 12.524 6.32693 12.3877C6.3362 12.3504 6.34548 12.3131 6.35504 12.2746C6.64732 11.1517 7.23139 10.1826 8.02492 9.34398C8.06407 9.30156 8.10321 9.25914 8.14355 9.21544C8.46153 8.88202 8.8085 8.62857 9.19289 8.37914C9.1197 8.21576 9.02268 8.07474 8.91987 7.92868C8.36015 7.12631 8.01378 6.21655 7.97414 5.2307C7.9711 5.17296 7.9711 5.17296 7.96799 5.11406C7.92924 3.71878 8.48812 2.45485 9.42657 1.44273C10.9273 -0.0628819 13.2692 -0.469431 15.1851 0.457261ZM12.5952 1.26976C12.5219 1.41645 12.5253 1.51333 12.5445 1.67601C12.716 1.92187 12.9094 1.97637 13.1891 2.03803C13.3363 2.09363 13.3824 2.14894 13.4585 2.28539C13.4889 2.44063 13.4852 2.58661 13.4585 2.74242C13.3632 2.86945 13.294 2.92622 13.1538 2.99632C12.7215 3.03235 12.3126 2.91028 11.9767 2.63292C11.6168 2.26839 11.5234 1.87012 11.478 1.37132C10.6407 1.61783 9.9764 2.32726 9.55292 3.06337C9.02614 4.06325 8.898 5.11263 9.2278 6.19872C9.42689 6.75041 9.71841 7.23061 10.107 7.6682C10.137 7.70302 10.167 7.73785 10.198 7.77373C10.8893 8.52249 11.8621 8.86147 12.8553 8.95221C13.9353 8.98591 14.9419 8.57138 15.7259 7.8404C16.5263 7.06427 16.9266 6.09187 16.9622 4.98532C16.9755 3.92892 16.5087 2.94379 15.7945 2.18382C15.0898 1.52158 14.2085 1.06936 13.23 1.05077C13.1645 1.04887 13.0991 1.04697 13.0316 1.04501C12.8219 1.06986 12.7424 1.12181 12.5952 1.26976ZM9.90839 9.16049C9.85557 9.19905 9.80274 9.2376 9.74831 9.27733C9.71969 9.29818 9.69107 9.31904 9.66158 9.34052C9.34907 9.57325 9.06384 9.83241 8.78664 10.1057C8.74645 10.1452 8.70626 10.1848 8.66485 10.2255C8.11348 10.802 7.61486 11.5989 7.46633 12.3909C7.76356 12.3997 8.06071 12.4061 8.35804 12.4104C8.45907 12.4122 8.56009 12.4146 8.66109 12.4177C8.80671 12.422 8.95221 12.424 9.09788 12.4256C9.14269 12.4274 9.18751 12.4292 9.23369 12.4311C9.42244 12.4312 9.54901 12.4282 9.70355 12.3132C9.79818 12.2201 9.79818 12.2201 9.87855 12.1226C10.2041 11.7495 10.7602 11.6023 11.2347 11.5659C11.841 11.5438 12.3451 11.6804 12.838 12.0366C12.9503 12.1 12.9503 12.1 13.0735 12.0532C13.1168 12.0306 13.16 12.0079 13.2046 11.9846C13.2521 11.9605 13.2995 11.9364 13.3484 11.9116C13.4233 11.8723 13.4233 11.8723 13.4998 11.8323C14.1131 11.5267 14.7305 11.4895 15.3971 11.6773C15.7745 11.8177 16.178 12.0521 16.4038 12.3909C16.4999 12.413 16.4999 12.413 16.6111 12.4081C16.6538 12.4081 16.6965 12.4081 16.7405 12.4081C16.7866 12.4073 16.8328 12.4065 16.8803 12.4057C16.9275 12.4055 16.9747 12.4053 17.0233 12.4051C17.1744 12.4042 17.3255 12.4023 17.4766 12.4004C17.5789 12.3996 17.6812 12.3989 17.7835 12.3983C18.0345 12.3966 18.2856 12.394 18.5366 12.3909C18.4487 12.0721 18.3477 11.7744 18.197 11.48C18.1794 11.4452 18.1617 11.4104 18.1435 11.3745C17.6922 10.5085 16.8606 9.49331 15.9468 9.09007C15.8175 9.11371 15.8175 9.11371 15.6929 9.19164C15.6397 9.22129 15.5866 9.25094 15.5318 9.28149C15.5027 9.29821 15.4736 9.31493 15.4436 9.33215C14.3201 9.97005 12.9888 10.1144 11.7385 9.8028C11.2943 9.6783 10.8913 9.49657 10.484 9.28149C10.4266 9.25184 10.3692 9.22219 10.3101 9.19164C10.2669 9.16702 10.2237 9.14241 10.1792 9.11705C10.0485 9.0752 10.0485 9.0752 9.90839 9.16049ZM10.3101 13.1526C10.0949 13.5061 10.0395 13.8811 10.1339 14.2829C10.2792 14.7019 10.5686 14.9762 10.8782 15.2792C10.9344 15.3353 10.9905 15.3913 11.0466 15.4475C11.1636 15.5642 11.2811 15.6805 11.3991 15.7963C11.5501 15.9448 11.7001 16.0942 11.8498 16.2441C11.9654 16.3596 12.0814 16.4747 12.1975 16.5897C12.253 16.6447 12.3084 16.6998 12.3637 16.755C12.4408 16.8318 12.5184 16.9081 12.5962 16.9843C12.6403 17.0278 12.6843 17.0712 12.7297 17.116C12.8447 17.2114 12.9047 17.2554 13.0523 17.2659C13.3681 17.1049 13.6057 16.8295 13.8537 16.5813C13.901 16.5342 13.9483 16.4871 13.997 16.4386C14.0969 16.3391 14.1966 16.2394 14.2961 16.1396C14.4227 16.0127 14.5499 15.8864 14.6772 15.7603C14.7998 15.6386 14.9218 15.5164 15.0438 15.3943C15.0891 15.3495 15.1343 15.3048 15.1809 15.2586C15.5787 14.8579 15.8974 14.5117 15.9119 13.9302C15.9071 13.5344 15.7983 13.2537 15.5342 12.959C15.2615 12.709 14.9408 12.5863 14.5725 12.5686C14.0971 12.5931 13.8046 12.8287 13.4718 13.1514C13.3193 13.2878 13.2104 13.3483 13.0078 13.3747C12.7082 13.3388 12.5348 13.1442 12.3223 12.9463C12.0042 12.6611 11.725 12.5631 11.2973 12.5801C10.8807 12.6268 10.5822 12.8377 10.3101 13.1526Z" fill="white"/>
<path d="M21.7847 23.5628C21.9305 23.6539 22.0128 23.7142 22.0894 23.8675C22.1357 24.2031 22.1357 24.2031 22.032 24.3612C22.0052 24.3904 21.9784 24.4196 21.9507 24.4497C21.9023 24.5024 21.9023 24.5024 21.853 24.5561C21.628 24.7901 21.4002 25.0211 21.1703 25.2502C21.0824 25.3378 20.9948 25.4257 20.9072 25.5136C20.8513 25.5695 20.7954 25.6253 20.7395 25.6811C20.7134 25.7074 20.6873 25.7336 20.6603 25.7606C20.4852 25.9346 20.3902 26.0086 20.1438 26.0193C19.9492 26.0181 19.9147 26.0074 19.7534 25.8797C19.6058 25.686 19.5776 25.5846 19.6011 25.3401C19.7457 25.0909 19.9274 24.8981 20.1315 24.6964C20.1626 24.6654 20.1936 24.6344 20.2256 24.6025C20.2907 24.5374 20.356 24.4725 20.4215 24.4078C20.5218 24.3083 20.6218 24.2085 20.7217 24.1086C20.7852 24.0453 20.8487 23.9821 20.9123 23.9188C20.9422 23.889 20.9722 23.8591 21.003 23.8283C21.262 23.5723 21.4238 23.516 21.7847 23.5628Z" fill="white"/>
<path d="M12.7449 5.99263C12.7952 6.02614 12.8455 6.05966 12.8973 6.09419C13.05 6.08119 13.1671 6.06368 13.3004 5.98628C13.4689 5.91479 13.5865 5.94682 13.7606 5.99263C13.9388 6.12439 14.0032 6.2078 14.0653 6.42109C14.0653 6.63786 14.0394 6.73037 13.9129 6.90669C13.5116 7.2162 13.1431 7.25126 12.6434 7.21138C12.3719 7.13406 12.1551 6.97836 11.9832 6.75435C11.9235 6.54909 11.9199 6.43716 11.9864 6.23384C12.1912 5.94311 12.4109 5.91068 12.7449 5.99263Z" fill="white"/>
<path d="M23.4091 21.9371C23.549 22.0479 23.6343 22.1337 23.7138 22.2926C23.72 22.525 23.7076 22.6986 23.5519 22.8766C23.3487 22.9849 23.1975 23.0257 22.9711 22.9718C22.8142 22.881 22.7395 22.8051 22.6473 22.648C22.6028 22.4259 22.6201 22.2845 22.7426 22.0926C22.9395 21.9015 23.1444 21.895 23.4091 21.9371Z" fill="white"/>
</g>
<defs>
<clipPath id="clip0_1242_21093">
<rect width="26" height="26" fill="white"/>
</clipPath>
</defs>
</svg>
