<svg width="24" height="24" viewBox="0 0 24 24" fill="none" xmlns="http://www.w3.org/2000/svg">
<path d="M17.625 21C18.2666 20.4297 19.2334 20.4297 19.875 21C20.3109 21.3875 21 21.0781 21 20.4948V3.50507C21 2.92184 20.3109 2.61239 19.875 2.99987C19.2334 3.57017 18.2666 3.57017 17.625 2.99987C16.9834 2.42957 16.0166 2.42957 15.375 2.99987C14.7334 3.57017 13.7666 3.57017 13.125 2.99987C12.4834 2.42957 11.5166 2.42957 10.875 2.99987C10.2334 3.57017 9.26659 3.57017 8.625 2.99987C7.98341 2.42957 7.01659 2.42957 6.375 2.99987C5.73341 3.57017 4.76659 3.57017 4.125 2.99987C3.68909 2.61239 3 2.92184 3 3.50507V20.4948C3 21.0781 3.68909 21.3875 4.125 21C4.76659 20.4297 5.73341 20.4297 6.375 21C7.01659 21.5703 7.98341 21.5703 8.625 21C9.26659 20.4297 10.2334 20.4297 10.875 21C11.5166 21.5703 12.4834 21.5703 13.125 21C13.7666 20.4297 14.7334 20.4297 15.375 21C16.0166 21.5703 16.9834 21.5703 17.625 21Z" stroke="#257BFC" stroke-width="1.5"/>
<path d="M15 9.5C15 8.39543 13.6569 7.5 12 7.5C10.3431 7.5 9 8.39543 9 9.5C9 10.6046 10.3431 11.5 12 11.5" stroke="#257BFC" stroke-width="1.5" stroke-linecap="round"/>
<path d="M9 14.5C9 15.6046 10.3431 16.5 12 16.5C13.6569 16.5 15 15.6046 15 14.5C15 13.3954 13.6569 12.5 12 12.5" stroke="#257BFC" stroke-width="1.5" stroke-linecap="round"/>
<path d="M12 6.5V17.5" stroke="#257BFC" stroke-width="1.5" stroke-linecap="round" stroke-linejoin="round"/>
</svg>
