<svg width="43" height="50" viewBox="0 0 43 50" fill="none" xmlns="http://www.w3.org/2000/svg">
<path d="M32.8931 27.8737C32.9503 27.6126 32.5935 27.4636 32.3908 27.6378C32.3125 27.7052 32.2401 27.7691 32.1677 27.8415C28.7163 31.293 25.2648 34.7444 21.8134 38.1959C21.3992 38.61 21.1231 38.6791 20.6399 38.1959C18.8451 36.3321 16.9813 34.4683 15.1176 32.6045C14.7034 32.1904 14.6344 31.9833 15.0485 31.5001C20.2947 26.2539 25.5409 21.0077 30.7871 15.7615C32.858 13.6906 35.6192 13.1384 38.1732 14.1738C40.7273 15.2092 42.315 17.6252 42.315 20.5245C42.315 30.1195 42.315 39.6455 42.315 49.2405C42.315 49.7927 42.1769 49.9998 41.5556 49.9998C40.037 49.9308 38.5184 49.9998 36.9997 49.9998C34.5147 49.9308 32.858 48.2741 32.858 45.7891C32.858 39.8762 32.858 33.9633 32.858 28.0504C32.858 28.0038 32.8702 27.9583 32.8831 27.9136C32.8867 27.901 32.8901 27.8877 32.8931 27.8737Z" fill="#111827"/>
<path d="M10.1068 27.5948C9.91792 27.4057 9.59472 27.5396 9.59472 27.8069C9.59472 33.97 9.59472 39.9462 9.59472 45.8584C9.59472 48.3434 7.869 50.0001 5.38396 50.0001C4.21047 50.0001 3.03697 50.0001 1.93251 50.0001C0.206787 50.0001 0.206787 50.0001 0.206787 48.2054C0.206787 39.0245 0.206787 29.9127 0.206787 20.7319C0.206787 17.6256 1.72542 15.2786 4.34852 14.1741C6.9026 13.1387 9.66375 13.7599 11.8727 15.8998C14.3577 18.3849 16.7737 20.8009 19.2588 23.2859C19.673 23.7001 19.811 23.9762 19.2588 24.4594C17.395 26.2542 15.5312 28.118 13.6674 30.0508C13.1842 30.534 12.9081 30.4649 12.4939 30.0508C11.7393 29.238 10.9846 28.4741 10.1068 27.5948Z" fill="#257BFC"/>
<path d="M5.79843 0C8.97376 0 11.5969 2.6231 11.5278 5.79843C11.5278 8.97376 8.90473 11.5969 5.7294 11.5278C2.6231 11.5278 0 8.90474 0 5.79843C0 2.6231 2.6231 0 5.79843 0Z" fill="#257BFC"/>
<path d="M30.7871 5.79843C30.7871 2.55407 33.4102 0 36.5855 0C39.7609 0 42.384 2.6231 42.384 5.79843C42.384 8.90474 39.7609 11.5278 36.6546 11.5278C33.4102 11.5969 30.7871 8.97376 30.7871 5.79843Z" fill="#111827"/>
</svg>
