<svg width="24" height="24" viewBox="0 0 24 24" fill="none" xmlns="http://www.w3.org/2000/svg">
<path d="M3.22568 1.21182C3.27235 1.21164 3.31901 1.21147 3.36709 1.21129C3.52365 1.21078 3.68021 1.2106 3.83677 1.21042C3.94896 1.21012 4.06115 1.20981 4.17334 1.20948C4.51015 1.20858 4.84696 1.20809 5.18377 1.20767C5.3426 1.20746 5.50143 1.20721 5.66026 1.20697C6.18865 1.20617 6.71703 1.20549 7.24541 1.20515C7.38243 1.20506 7.51945 1.20497 7.65646 1.20488C7.69052 1.20486 7.72457 1.20483 7.75965 1.20481C8.31075 1.20442 8.86185 1.20323 9.41295 1.20171C9.97946 1.20016 10.546 1.19932 11.1125 1.19917C11.4303 1.19907 11.7481 1.19866 12.0659 1.19746C12.365 1.19636 12.6642 1.19617 12.9634 1.19665C13.0729 1.19667 13.1824 1.19638 13.2919 1.19573C14.6614 1.18812 14.6614 1.18812 15.1908 1.6448C15.5509 2.00131 15.77 2.41784 15.7733 2.93091C15.7723 2.99347 15.7723 2.99347 15.7713 3.0573C15.7713 3.10263 15.7713 3.14796 15.7713 3.19467C15.7712 3.3428 15.7698 3.49088 15.7683 3.639C15.7679 3.74238 15.7677 3.84575 15.7675 3.94913C15.7668 4.21992 15.7649 4.4907 15.7629 4.76149C15.7609 5.03833 15.7601 5.31517 15.7591 5.59201C15.7571 6.13425 15.7539 6.67648 15.75 7.21872C15.7777 7.21854 15.8054 7.21837 15.8339 7.21819C16.5105 7.21404 17.1871 7.21094 17.8636 7.209C18.1908 7.20804 18.518 7.20673 18.8452 7.20457C19.1613 7.20249 19.4774 7.20141 19.7935 7.20093C19.9137 7.20058 20.034 7.19991 20.1542 7.19889C21.6939 7.1864 21.6939 7.1864 22.3077 7.77243C22.6273 8.10684 22.7865 8.52546 22.7875 8.98746C22.7877 9.03098 22.7879 9.07451 22.7882 9.11935C22.7881 9.19047 22.7881 9.19047 22.7881 9.26304C22.7883 9.31372 22.7885 9.36441 22.7886 9.41663C22.7892 9.5868 22.7893 9.75696 22.7895 9.92712C22.7898 10.049 22.7901 10.1709 22.7905 10.2928C22.7914 10.6588 22.7919 11.0248 22.7923 11.3908C22.7925 11.5634 22.7927 11.7359 22.793 11.9085C22.7938 12.4825 22.7945 13.0565 22.7948 13.6304C22.7949 13.7793 22.795 13.9282 22.7951 14.077C22.7951 14.114 22.7951 14.151 22.7951 14.1891C22.7955 14.788 22.7967 15.3868 22.7982 15.9857C22.7998 16.6011 22.8006 17.2166 22.8008 17.832C22.8009 18.1773 22.8013 18.5226 22.8025 18.8679C22.8036 19.1929 22.8038 19.518 22.8033 19.843C22.8033 19.962 22.8036 20.0811 22.8042 20.2001C22.8119 21.6957 22.8119 21.6957 22.2275 22.3077C21.8585 22.6604 21.421 22.7868 20.9188 22.7875C20.8875 22.7876 20.8562 22.7877 20.824 22.7878C20.7191 22.7882 20.6141 22.7881 20.5091 22.7881C20.4332 22.7883 20.3572 22.7884 20.2813 22.7886C20.0724 22.7891 19.8635 22.7893 19.6547 22.7894C19.4295 22.7896 19.2043 22.79 18.979 22.7904C18.4351 22.7914 17.8911 22.7918 17.3471 22.7923C17.0908 22.7925 16.8346 22.7927 16.5784 22.793C15.7264 22.7938 14.8745 22.7944 14.0226 22.7948C13.8015 22.7949 13.5805 22.795 13.3594 22.7951C13.277 22.7951 13.277 22.7951 13.193 22.7951C12.3031 22.7955 11.4133 22.7967 10.5235 22.7982C9.60968 22.7998 8.69589 22.8006 7.78211 22.8008C7.26914 22.8009 6.75617 22.8013 6.24321 22.8025C5.8063 22.8035 5.3694 22.8039 4.9325 22.8034C4.7097 22.8032 4.48691 22.8033 4.26412 22.8042C4.05985 22.805 3.8556 22.805 3.65133 22.8042C3.57773 22.8041 3.50413 22.8043 3.43054 22.8049C2.74876 22.8097 2.19416 22.7067 1.69224 22.2275C1.33957 21.8585 1.21319 21.421 1.21244 20.9188C1.21233 20.8875 1.21222 20.8562 1.2121 20.824C1.21179 20.719 1.21181 20.6141 1.21183 20.5091C1.21167 20.4332 1.2115 20.3572 1.21131 20.2813C1.21084 20.0724 1.21066 19.8635 1.21054 19.6547C1.21036 19.4295 1.20991 19.2042 1.2095 18.979C1.20857 18.435 1.2081 17.8911 1.20768 17.3471C1.20748 17.0908 1.20722 16.8346 1.20698 16.5783C1.20618 15.7264 1.2055 14.8745 1.20516 14.0226C1.20507 13.8015 1.20498 13.5805 1.20489 13.3594C1.20487 13.3045 1.20485 13.2496 1.20482 13.1929C1.20443 12.3031 1.20325 11.4133 1.20172 10.5234C1.20017 9.60966 1.19933 8.69588 1.19918 7.7821C1.19908 7.26913 1.19867 6.75616 1.19747 6.24319C1.19645 5.80629 1.19608 5.36939 1.19653 4.93248C1.19674 4.70969 1.19666 4.4869 1.19575 4.2641C1.19492 4.05983 1.19497 3.85558 1.19569 3.65132C1.19581 3.57772 1.1956 3.50412 1.19505 3.43053C1.1902 2.74874 1.29324 2.19414 1.77244 1.69223C2.18999 1.2932 2.66926 1.21171 3.22568 1.21182ZM2.7656 2.95309C2.7375 3.09596 2.7375 3.09596 2.74201 3.25821C2.74173 3.28892 2.74146 3.31963 2.74118 3.35127C2.74049 3.45463 2.74115 3.55793 2.74179 3.66129C2.74158 3.73595 2.74128 3.81061 2.74091 3.88527C2.74012 4.09079 2.74051 4.29629 2.74109 4.5018C2.74151 4.72331 2.74086 4.9448 2.74035 5.1663C2.73951 5.60036 2.73969 6.03442 2.74024 6.46848C2.74066 6.82115 2.74072 7.17382 2.74051 7.5265C2.74048 7.57663 2.74045 7.62677 2.74043 7.67843C2.74037 7.78027 2.7403 7.88211 2.74024 7.98396C2.73971 8.93961 2.74032 9.89527 2.74133 10.8509C2.74217 11.6715 2.74202 12.492 2.74116 13.3125C2.74016 14.2647 2.73976 15.2168 2.74034 16.169C2.7404 16.2705 2.74045 16.372 2.74051 16.4734C2.74054 16.5234 2.74057 16.5733 2.7406 16.6247C2.74076 16.9771 2.74049 17.3295 2.74005 17.6819C2.73952 18.1111 2.73966 18.5404 2.74066 18.9696C2.74116 19.1887 2.74135 19.4079 2.74073 19.627C2.74017 19.8274 2.74047 20.0278 2.74147 20.2283C2.74168 20.301 2.74158 20.3736 2.74112 20.4463C2.74056 20.5448 2.74113 20.6432 2.74201 20.7417C2.74204 20.7965 2.74207 20.8513 2.7421 20.9078C2.77057 21.0762 2.81916 21.1315 2.9531 21.2343C3.06416 21.2612 3.06416 21.2612 3.18523 21.2556C3.23121 21.2556 3.27718 21.2556 3.32454 21.2556C3.37381 21.2546 3.42309 21.2536 3.47385 21.2527C3.52457 21.2524 3.57529 21.2521 3.62754 21.2518C3.78947 21.2508 3.95135 21.2484 4.11326 21.2461C4.22306 21.2451 4.33286 21.2443 4.44267 21.2435C4.71179 21.2414 4.98088 21.2383 5.24998 21.2343C5.25 21.2034 5.25003 21.1724 5.25005 21.1405C5.25076 20.3853 5.25275 19.6302 5.25617 18.875C5.25779 18.5099 5.25898 18.1447 5.25914 17.7795C5.25929 17.461 5.26025 17.1426 5.26219 16.8241C5.26319 16.6556 5.26378 16.4872 5.26339 16.3187C5.26297 16.1302 5.26439 15.9417 5.26594 15.7532C5.26534 15.6702 5.26534 15.6702 5.26472 15.5856C5.26954 15.236 5.32683 14.9614 5.53123 14.6718C5.85841 14.3618 6.1497 14.2828 6.59081 14.2832C6.63589 14.2829 6.68097 14.2826 6.72741 14.2823C6.87629 14.2814 7.02516 14.2812 7.17405 14.2811C7.2778 14.2808 7.38155 14.2805 7.4853 14.2801C7.70281 14.2796 7.92031 14.2794 8.13783 14.2795C8.41592 14.2795 8.69399 14.2782 8.97207 14.2766C9.18642 14.2755 9.40075 14.2754 9.6151 14.2754C9.71759 14.2753 9.82007 14.2749 9.92256 14.2742C10.0663 14.2732 10.2099 14.2735 10.3536 14.2741C10.3956 14.2735 10.4375 14.273 10.4807 14.2725C10.8144 14.2758 11.0973 14.3588 11.358 14.5731C11.3823 14.6028 11.4066 14.6325 11.4316 14.6631C11.4566 14.6924 11.4817 14.7217 11.5074 14.7519C11.7312 15.0922 11.7395 15.3797 11.739 15.7798C11.7397 15.8683 11.7397 15.8683 11.7404 15.9587C11.7417 16.1197 11.7422 16.2807 11.7425 16.4418C11.7429 16.6104 11.7441 16.779 11.7453 16.9476C11.7473 17.2665 11.7486 17.5854 11.7497 17.9043C11.751 18.2675 11.7531 18.6307 11.7552 18.9939C11.7595 19.7407 11.7628 20.4875 11.7656 21.2343C12.5854 21.2343 13.4053 21.2343 14.25 21.2343C14.2521 18.9146 14.2538 16.5948 14.2548 14.2751C14.2549 14.0014 14.255 13.7277 14.2551 13.4541C14.2552 13.3996 14.2552 13.3451 14.2552 13.289C14.2556 12.406 14.2563 11.523 14.2572 10.6399C14.2581 9.73438 14.2586 8.82882 14.2588 7.92325C14.2589 7.36415 14.2593 6.80505 14.2601 6.24594C14.2606 5.86292 14.2607 5.47989 14.2606 5.09687C14.2606 4.87565 14.2607 4.65443 14.2612 4.43321C14.2616 4.23087 14.2616 4.02853 14.2613 3.82618C14.2613 3.75281 14.2614 3.67943 14.2617 3.60606C14.2621 3.50664 14.2619 3.40723 14.2615 3.30781C14.2615 3.25249 14.2616 3.19717 14.2616 3.14017C14.2503 3.00344 14.2322 2.92551 14.1562 2.81247C13.9947 2.73172 13.8085 2.75866 13.6307 2.75869C13.5854 2.75852 13.5401 2.75835 13.4934 2.75817C13.3406 2.75765 13.1878 2.75747 13.035 2.75729C12.9258 2.757 12.8167 2.75669 12.7075 2.75636C12.4103 2.75554 12.1131 2.75505 11.8158 2.75466C11.6303 2.75442 11.4448 2.75414 11.2593 2.75384C10.7459 2.75305 10.2325 2.75237 9.71904 2.75203C9.58579 2.75194 9.45253 2.75185 9.31927 2.75175C9.28615 2.75173 9.25302 2.75171 9.2189 2.75169C8.68205 2.7513 8.14522 2.75011 7.60837 2.74859C7.05749 2.74704 6.50661 2.74619 5.95572 2.74604C5.6463 2.74593 5.33689 2.74551 5.02747 2.74433C4.73653 2.74325 4.4456 2.74304 4.15465 2.74353C4.04769 2.74355 3.94074 2.74325 3.83378 2.74261C3.6881 2.74178 3.54246 2.74211 3.39677 2.74273C3.35416 2.74221 3.31154 2.7417 3.26764 2.74117C3.20911 2.74177 3.20911 2.74177 3.14941 2.74239C3.09897 2.74232 3.09897 2.74232 3.04752 2.74225C2.90606 2.77722 2.85201 2.83708 2.7656 2.95309ZM15.75 8.76559C15.75 12.8803 15.75 16.995 15.75 21.2343C17.4979 21.2343 19.2459 21.2343 21.0469 21.2343C21.2427 21.0558 21.2427 21.0558 21.2579 20.8354C21.2584 20.793 21.2589 20.7507 21.2594 20.707C21.259 20.6606 21.2586 20.6142 21.2582 20.5664C21.2586 20.4923 21.2586 20.4923 21.259 20.4167C21.2598 20.2506 21.2592 20.0845 21.2586 19.9184C21.2589 19.7995 21.2592 19.6806 21.2596 19.5617C21.2604 19.2721 21.2603 18.9824 21.2597 18.6927C21.2593 18.4573 21.2592 18.2219 21.2594 17.9865C21.2595 17.953 21.2595 17.9196 21.2595 17.8851C21.2596 17.817 21.2597 17.749 21.2597 17.681C21.2602 17.0429 21.2596 16.4049 21.2586 15.7669C21.2578 15.2192 21.2579 14.6716 21.2588 14.1239C21.2598 13.4882 21.2602 12.8525 21.2596 12.2167C21.2596 12.149 21.2595 12.0812 21.2594 12.0134C21.2594 11.9801 21.2594 11.9467 21.2594 11.9124C21.2592 11.6772 21.2595 11.442 21.2599 11.2069C21.2605 10.8905 21.2601 10.5741 21.259 10.2577C21.2587 10.1413 21.2588 10.025 21.2592 9.90868C21.2597 9.75027 21.2591 9.59191 21.2582 9.4335C21.2588 9.36393 21.2588 9.36393 21.2594 9.29295C21.2589 9.25056 21.2585 9.20818 21.2579 9.16451C21.2579 9.10966 21.2579 9.10966 21.2579 9.05371C21.2365 8.92223 21.2365 8.92223 21.0469 8.76559C19.2989 8.76559 17.5509 8.76559 15.75 8.76559ZM6.74998 15.75C6.74998 17.5598 6.74998 19.3697 6.74998 21.2343C7.89467 21.2343 9.03935 21.2343 10.2187 21.2343C10.2187 19.4245 10.2187 17.6147 10.2187 15.75C9.07404 15.75 7.92935 15.75 6.74998 15.75Z" fill="white"/>
<path d="M17.7188 17.7188C18.2292 17.7188 18.7397 17.7188 19.2656 17.7188C19.2656 18.2292 19.2656 18.7397 19.2656 19.2656C18.7552 19.2656 18.2447 19.2656 17.7188 19.2656C17.7188 18.7552 17.7188 18.2447 17.7188 17.7188Z" fill="white"/>
<path d="M10.7344 11.4844C11.2448 11.4844 11.7553 11.4844 12.2812 11.4844C12.2812 11.9948 12.2812 12.5053 12.2812 13.0312C11.7708 13.0312 11.2603 13.0312 10.7344 13.0312C10.7344 12.5208 10.7344 12.0103 10.7344 11.4844Z" fill="white"/>
<path d="M7.73438 11.4844C8.24484 11.4844 8.75531 11.4844 9.28125 11.4844C9.28125 11.9948 9.28125 12.5053 9.28125 13.0312C8.77078 13.0312 8.26031 13.0312 7.73438 13.0312C7.73438 12.5208 7.73438 12.0103 7.73438 11.4844Z" fill="white"/>
<path d="M4.73438 11.4844C5.24484 11.4844 5.75531 11.4844 6.28125 11.4844C6.28125 11.9948 6.28125 12.5053 6.28125 13.0312C5.77078 13.0312 5.26031 13.0312 4.73438 13.0312C4.73438 12.5208 4.73438 12.0103 4.73438 11.4844Z" fill="white"/>
<path d="M17.7188 10.7344C18.2292 10.7344 18.7397 10.7344 19.2656 10.7344C19.2656 11.2448 19.2656 11.7553 19.2656 12.2812C18.7552 12.2812 18.2447 12.2812 17.7188 12.2812C17.7188 11.7708 17.7188 11.2603 17.7188 10.7344Z" fill="white"/>
<path d="M10.7344 7.96875C11.2448 7.96875 11.7553 7.96875 12.2812 7.96875C12.2812 8.47922 12.2812 8.98969 12.2812 9.51562C11.7708 9.51562 11.2603 9.51562 10.7344 9.51562C10.7344 9.00516 10.7344 8.49469 10.7344 7.96875Z" fill="white"/>
<path d="M7.73438 7.96875C8.24484 7.96875 8.75531 7.96875 9.28125 7.96875C9.28125 8.47922 9.28125 8.98969 9.28125 9.51562C8.77078 9.51562 8.26031 9.51562 7.73438 9.51562C7.73438 9.00516 7.73438 8.49469 7.73438 7.96875Z" fill="white"/>
<path d="M4.73438 7.96875C5.24484 7.96875 5.75531 7.96875 6.28125 7.96875C6.28125 8.47922 6.28125 8.98969 6.28125 9.51562C5.77078 9.51562 5.26031 9.51562 4.73438 9.51562C4.73438 9.00516 4.73438 8.49469 4.73438 7.96875Z" fill="white"/>
<path d="M17.7188 14.25C18.2292 14.25 18.7397 14.25 19.2656 14.25C19.2656 14.745 19.2656 15.24 19.2656 15.75C18.7552 15.75 18.2447 15.75 17.7188 15.75C17.7188 15.255 17.7188 14.76 17.7188 14.25Z" fill="white"/>
<path d="M10.7344 4.5C11.2448 4.5 11.7553 4.5 12.2812 4.5C12.2812 4.995 12.2812 5.49 12.2812 6C11.7708 6 11.2603 6 10.7344 6C10.7344 5.505 10.7344 5.01 10.7344 4.5Z" fill="white"/>
<path d="M7.73438 4.5C8.24484 4.5 8.75531 4.5 9.28125 4.5C9.28125 4.995 9.28125 5.49 9.28125 6C8.77078 6 8.26031 6 7.73438 6C7.73438 5.505 7.73438 5.01 7.73438 4.5Z" fill="white"/>
<path d="M4.73438 4.5C5.24484 4.5 5.75531 4.5 6.28125 4.5C6.28125 4.995 6.28125 5.49 6.28125 6C5.77078 6 5.26031 6 4.73438 6C4.73438 5.505 4.73438 5.01 4.73438 4.5Z" fill="white"/>
</svg>
