<svg width="24" height="24" viewBox="0 0 24 24" fill="none" xmlns="http://www.w3.org/2000/svg">
<ellipse cx="10" cy="17.5" rx="7" ry="3.5" stroke="#111827" stroke-width="1.5" stroke-linejoin="round"/>
<circle cx="10" cy="7" r="4" stroke="#111827" stroke-width="1.5" stroke-linejoin="round"/>
<path d="M15.3408 4.26538C17.2524 4.4373 18.7509 6.04349 18.751 7.99976C18.751 10.0707 17.0719 11.7495 15.001 11.7498C14.6094 11.7498 14.2318 11.6892 13.877 11.5779C14.3287 11.195 14.7218 10.7462 15.0439 10.2468C16.2665 10.2237 17.251 9.22789 17.251 7.99976C17.2509 7.07916 16.6972 6.2885 15.9053 5.94019C15.7995 5.34705 15.6072 4.78446 15.3408 4.26538Z" fill="#111827"/>
<path d="M15.752 13.2703C17.192 13.3416 18.5093 13.614 19.5312 14.0399C20.1281 14.2886 20.6604 14.6037 21.0547 14.992C21.4516 15.3831 21.7499 15.8935 21.75 16.4998C21.75 17.1061 21.4516 17.6166 21.0547 18.0076C20.6604 18.3959 20.128 18.7111 19.5312 18.9598C19.2139 19.092 18.8672 19.2079 18.498 19.3094C18.8122 18.7586 18.9873 18.1693 18.9971 17.5545C19.4625 17.356 19.7956 17.1416 20.002 16.9383C20.2119 16.7314 20.25 16.5837 20.25 16.4998C20.2499 16.4159 20.2119 16.2682 20.002 16.0613C19.7891 15.8517 19.4426 15.6282 18.9541 15.4246C18.7068 15.3216 18.4318 15.2276 18.1338 15.1443C17.5694 14.4179 16.7526 13.7791 15.752 13.2703Z" fill="#111827"/>
</svg>
