<svg width="24" height="24" viewBox="0 0 24 24" fill="none" xmlns="http://www.w3.org/2000/svg">
<path d="M6.40039 0.75H14.3896L20.8506 7.20996V20C20.8506 21.7949 19.3954 23.2499 17.6006 23.25H6.40039C4.60547 23.25 3.15039 21.7949 3.15039 20V4C3.15039 2.20508 4.60547 0.75 6.40039 0.75Z" stroke="#98A2B3" stroke-width="1.5"/>
<path d="M14.4004 0.299805V3.1998C14.4004 5.40894 16.1913 7.1998 18.4004 7.1998H21.3004" stroke="#98A2B3" stroke-width="1.5"/>
<path d="M7.0498 19.2002V15.2729H8.59924C8.89711 15.2729 9.15087 15.3298 9.36053 15.4436C9.57019 15.5561 9.72999 15.7127 9.83993 15.9134C9.95115 16.1129 10.0068 16.343 10.0068 16.6038C10.0068 16.8646 9.95052 17.0947 9.83802 17.2941C9.72552 17.4935 9.56252 17.6489 9.34902 17.7601C9.13681 17.8713 8.87985 17.9269 8.57814 17.9269H7.59057V17.2615H8.44391C8.60371 17.2615 8.73539 17.234 8.83894 17.1791C8.94377 17.1228 9.02175 17.0455 9.07289 16.947C9.1253 16.8473 9.15151 16.7329 9.15151 16.6038C9.15151 16.4734 9.1253 16.3596 9.07289 16.2624C9.02175 16.164 8.94377 16.0879 8.83894 16.0342C8.73411 15.9793 8.60115 15.9518 8.44007 15.9518H7.88013V19.2002H7.0498Z" fill="#EF4444"/>
<path d="M11.9383 19.2002H10.5461V15.2729H11.9498C12.3448 15.2729 12.6849 15.3516 12.97 15.5088C13.255 15.6648 13.4743 15.8891 13.6277 16.1819C13.7824 16.4747 13.8597 16.8249 13.8597 17.2328C13.8597 17.6418 13.7824 17.9934 13.6277 18.2874C13.4743 18.5815 13.2538 18.8071 12.9661 18.9644C12.6798 19.1216 12.3371 19.2002 11.9383 19.2002ZM11.3764 18.4888H11.9038C12.1492 18.4888 12.3557 18.4453 12.5232 18.3584C12.6919 18.2702 12.8185 18.134 12.9028 17.9499C12.9885 17.7646 13.0313 17.5255 13.0313 17.2328C13.0313 16.9426 12.9885 16.7054 12.9028 16.5213C12.8185 16.3372 12.6925 16.2017 12.5251 16.1148C12.3576 16.0278 12.1511 15.9844 11.9057 15.9844H11.3764V18.4888Z" fill="#EF4444"/>
<path d="M14.4748 19.2002V15.2729H17.0751V15.9575H15.3051V16.8933H16.9025V17.5779H15.3051V19.2002H14.4748Z" fill="#EF4444"/>
</svg>
