<svg width="28" height="28" viewBox="0 0 28 28" fill="none" xmlns="http://www.w3.org/2000/svg">
<path d="M20.5625 24.4999C21.311 23.8346 22.439 23.8346 23.1875 24.4999C23.6961 24.952 24.5 24.591 24.5 23.9105V4.08914C24.5 3.40871 23.6961 3.04769 23.1875 3.49974C22.439 4.16509 21.311 4.16509 20.5625 3.49974C19.814 2.8344 18.686 2.8344 17.9375 3.49974C17.189 4.16509 16.061 4.16509 15.3125 3.49974C14.564 2.8344 13.436 2.8344 12.6875 3.49974C11.939 4.16509 10.811 4.16509 10.0625 3.49974C9.31398 2.8344 8.18602 2.8344 7.4375 3.49974C6.68898 4.16509 5.56102 4.16509 4.8125 3.49974C4.30394 3.04769 3.5 3.40871 3.5 4.08914V23.9105C3.5 24.591 4.30394 24.952 4.8125 24.4999C5.56102 23.8346 6.68898 23.8346 7.4375 24.4999C8.18602 25.1653 9.31398 25.1653 10.0625 24.4999C10.811 23.8346 11.939 23.8346 12.6875 24.4999C13.436 25.1653 14.564 25.1653 15.3125 24.4999C16.061 23.8346 17.189 23.8346 17.9375 24.4999C18.686 25.1653 19.814 25.1653 20.5625 24.4999Z" stroke="white" stroke-width="1.5"/>
<path d="M17.5 11.0833C17.5 9.79467 15.933 8.75 14 8.75C12.067 8.75 10.5 9.79467 10.5 11.0833C10.5 12.372 12.067 13.4167 14 13.4167" stroke="white" stroke-width="1.5" stroke-linecap="round"/>
<path d="M10.5 16.9167C10.5 18.2054 12.067 19.25 14 19.25C15.933 19.25 17.5 18.2054 17.5 16.9167C17.5 15.628 15.933 14.5834 14 14.5834" stroke="white" stroke-width="1.5" stroke-linecap="round"/>
<path d="M14 7.58337V20.4167" stroke="white" stroke-width="1.5" stroke-linecap="round" stroke-linejoin="round"/>
</svg>
