<svg width="24" height="24" viewBox="0 0 24 24" fill="none" xmlns="http://www.w3.org/2000/svg">
<path d="M15.2441 12.5283C15.3595 12.499 15.476 12.4936 15.5928 12.5107C15.4508 12.5018 15.3113 12.5167 15.1738 12.5566C15.197 12.5461 15.2205 12.5369 15.2441 12.5283Z" fill="white" stroke="white"/>
<path d="M10.582 16.502C10.5854 16.5038 10.5882 16.5048 10.5898 16.5059C10.5939 16.5085 10.5927 16.5088 10.5908 16.5068C10.593 16.5093 10.6069 16.5281 10.6475 16.6143L10.6553 16.6299C10.742 16.7987 10.8478 16.9631 11 17.1074C11.1545 17.254 11.3333 17.3566 11.54 17.4355L11.5967 17.458L11.6572 17.4648C12.0343 17.5116 12.452 17.5102 12.8691 17.2275L12.8857 17.2158L12.9014 17.2041C13.1521 17.0032 13.2869 16.7958 13.3984 16.5488C13.4072 16.5302 13.4146 16.5165 13.4199 16.5059C13.4465 16.5018 13.4704 16.5005 13.4932 16.501C13.4946 16.502 13.4959 16.503 13.4971 16.5039C13.4906 16.5793 13.4456 16.6749 13.3037 16.8857C13.0153 17.2302 12.7127 17.4218 12.2725 17.4863C11.7699 17.5321 11.395 17.4571 11.0322 17.2109C10.7297 16.9736 10.5481 16.7324 10.5059 16.5146C10.5068 16.5129 10.5106 16.5096 10.5166 16.502C10.5349 16.5 10.5562 16.4997 10.582 16.502Z" fill="white" stroke="white"/>
<mask id="path-3-outside-1_1138_16281" maskUnits="userSpaceOnUse" x="0" y="0" width="24" height="23" fill="black">
<rect fill="white" width="24" height="23"/>
<path d="M14.3172 1.86306C14.7743 2.269 15.1234 2.7379 15.3228 3.33009C15.4374 3.60229 15.579 3.68294 15.8324 3.79028C15.9012 3.81821 15.97 3.84592 16.039 3.87343C17.947 4.63559 19.5282 6.58767 20.367 8.4675C20.586 8.98671 20.7917 9.51234 20.8819 10.074C20.9069 10.0746 20.9319 10.0752 20.9576 10.0759C21.5622 10.1125 22.0684 10.4398 22.4828 10.8856C22.9619 11.4759 23.0405 12.1897 22.9843 12.93C22.8688 13.5743 22.4928 14.0869 21.9871 14.455C21.6584 14.6812 21.2831 14.8488 20.8819 14.8488C20.8766 14.8766 20.8713 14.9044 20.8658 14.933C20.4273 16.9769 19.1056 18.8887 17.4923 20.1145C17.4576 20.141 17.4576 20.141 17.4221 20.168C16.1208 21.1499 14.6678 21.7333 13.0729 21.9441C13.0446 21.9483 13.0162 21.9525 12.9869 21.9569C12.6718 21.9997 12.3553 21.9996 12.0378 21.9999C11.9924 22 11.9924 22 11.9462 22C9.53139 21.9962 7.29792 20.9993 5.56434 19.2667C5.50651 19.2093 5.50651 19.2093 5.44752 19.1507C4.79472 18.4886 4.26608 17.6977 3.84809 16.8569C3.83212 16.8251 3.81615 16.7933 3.79969 16.7605C3.11868 15.3868 3.11868 15.3868 3.11868 14.8488C3.06965 14.8423 3.06965 14.8423 3.01963 14.8356C2.5507 14.7649 2.21344 14.6005 1.83149 14.3133C1.76512 14.2636 1.76512 14.2636 1.69741 14.2129C1.30945 13.827 1.02617 13.2769 1.00186 12.7133C0.994611 12.2667 0.999628 11.8683 1.1879 11.4573C1.20294 11.4225 1.21798 11.3876 1.23348 11.3517C1.51293 10.7684 2.00334 10.3765 2.58218 10.1503C2.75879 10.0982 2.93578 10.0821 3.11868 10.074C3.12499 10.0441 3.13129 10.0143 3.13779 9.98351C3.65278 7.69021 5.15105 5.64493 7.05098 4.39167C7.37871 4.18012 7.71682 3.99431 8.06346 3.8187C8.10273 3.79841 8.10273 3.79841 8.14278 3.77772C8.19968 3.74958 8.25754 3.72349 8.316 3.69904C8.48957 3.62204 8.55515 3.58179 8.65192 3.40557C8.67305 3.34635 8.69324 3.28677 8.71259 3.2269C8.88775 2.75312 9.16172 2.39567 9.51172 2.04156C9.53954 2.01274 9.56736 1.98392 9.59602 1.95422C10.903 0.67565 12.9558 0.718828 14.3172 1.86306ZM10.009 2.92167C9.47351 3.62737 9.31964 4.33237 9.383 5.2099C9.47212 5.89733 9.87533 6.5356 10.3998 6.95323C10.8989 7.29602 11.398 7.50896 12.0003 7.48576C11.9562 7.36927 11.9108 7.25393 11.8622 7.13939C11.5704 6.4464 11.5092 5.71198 11.7428 4.98678C12.0232 4.26093 12.4993 3.74704 13.1883 3.43607C13.4982 3.31443 13.8168 3.24065 14.1456 3.2018C13.8201 2.59111 13.2842 2.29367 12.6702 2.08531C11.7183 1.81666 10.6627 2.15361 10.009 2.92167ZM13.0126 4.68661C12.6373 5.10947 12.4964 5.57512 12.5152 6.14702C12.6157 6.73441 12.8974 7.05634 13.3178 7.43224C13.4462 7.56028 13.4575 7.63432 13.4671 7.81765C13.4556 8.0462 13.4556 8.0462 13.3733 8.15513C12.8172 8.54593 11.8766 8.51354 11.2454 8.39045C11.0922 8.34995 10.9469 8.30211 10.7989 8.24438C10.7544 8.22821 10.7099 8.21205 10.664 8.19539C10.0037 7.93533 9.48638 7.48054 9.08031 6.88943C9.01391 6.79582 8.95001 6.71636 8.86812 6.63789C8.28198 7.03455 7.77584 7.4494 7.28724 7.97297C7.25501 8.00725 7.22279 8.04154 7.18958 8.07686C7.16063 8.108 7.13168 8.13915 7.10185 8.17124C6.94871 8.31355 6.79044 8.29975 6.59409 8.289C6.48422 8.25194 6.43884 8.22189 6.36883 8.12724C6.32195 7.97284 6.30474 7.82231 6.33665 7.66426C6.4654 7.42599 6.64171 7.24219 6.82739 7.05067C6.85792 7.01917 6.88845 6.98766 6.91991 6.95521C7.39011 6.47722 7.93458 6.05236 8.52487 5.7454C8.4824 5.43615 8.43992 5.1269 8.39615 4.80828C8.16875 4.88712 7.99548 4.97316 7.79278 5.09834C7.76081 5.11804 7.72884 5.13774 7.6959 5.15803C7.26556 5.42826 6.88376 5.74999 6.51431 6.10449C6.43991 6.17509 6.36467 6.24115 6.2857 6.30599C6.12816 6.44799 5.99921 6.6066 5.86468 6.77176C5.82923 6.81312 5.79378 6.85448 5.75725 6.8971C4.49489 8.38156 3.78665 10.3595 3.79164 12.3353C3.79177 12.4466 3.79076 12.5577 3.78968 12.6689C3.78703 13.3548 3.87288 14.0212 4.05457 14.6815C4.06567 14.7226 4.07677 14.7636 4.0882 14.806C4.24954 15.388 4.48377 15.9285 4.75218 16.4648C4.78732 16.5351 4.82174 16.6059 4.85605 16.6767C5.38562 17.7378 6.23417 18.651 7.15187 19.3559C7.18782 19.3841 7.22377 19.4124 7.26081 19.4415C8.97479 20.7442 11.1605 21.2172 13.2446 20.9178C14.4699 20.7065 15.6645 20.249 16.6771 19.4898C16.7 19.4727 16.7229 19.4556 16.7466 19.4379C17.0966 19.1745 17.4172 18.8819 17.729 18.5712C17.7866 18.514 17.845 18.4577 17.9034 18.4015C18.3918 17.9182 18.7914 17.3316 19.1227 16.723C19.1377 16.6962 19.1527 16.6694 19.1682 16.6417C20.2303 14.7319 20.508 12.4063 19.9643 10.2772C19.3762 8.11418 18.0567 6.19759 16.1657 5.07084C16.0087 4.98023 15.85 4.89339 15.6902 4.80828C15.6497 4.7864 15.6497 4.7864 15.6084 4.76407C14.7335 4.29638 13.8333 3.90151 13.0126 4.68661ZM2.31285 11.4844C2.06993 11.7557 1.95243 12.0698 1.93876 12.4391C1.95378 12.8453 2.10968 13.223 2.38927 13.5101C2.62633 13.6997 2.62633 13.6997 2.90415 13.7778C2.90105 13.7323 2.89795 13.6867 2.89476 13.6398C2.84216 12.8079 2.84333 11.9763 2.90415 11.145C2.66999 11.145 2.48194 11.3259 2.31285 11.4844ZM21.0964 11.145C21.0995 11.1873 21.1026 11.2296 21.1058 11.2733C21.1623 12.1082 21.1532 12.9432 21.0964 13.7778C21.4561 13.6669 21.7318 13.45 21.9147 13.1064C22.0815 12.7418 22.1054 12.322 21.976 11.9398C21.8202 11.5842 21.5674 11.3055 21.2251 11.145C21.1827 11.145 21.1402 11.145 21.0964 11.145Z"/>
</mask>
<path d="M14.3172 1.86306C14.7743 2.269 15.1234 2.7379 15.3228 3.33009C15.4374 3.60229 15.579 3.68294 15.8324 3.79028C15.9012 3.81821 15.97 3.84592 16.039 3.87343C17.947 4.63559 19.5282 6.58767 20.367 8.4675C20.586 8.98671 20.7917 9.51234 20.8819 10.074C20.9069 10.0746 20.9319 10.0752 20.9576 10.0759C21.5622 10.1125 22.0684 10.4398 22.4828 10.8856C22.9619 11.4759 23.0405 12.1897 22.9843 12.93C22.8688 13.5743 22.4928 14.0869 21.9871 14.455C21.6584 14.6812 21.2831 14.8488 20.8819 14.8488C20.8766 14.8766 20.8713 14.9044 20.8658 14.933C20.4273 16.9769 19.1056 18.8887 17.4923 20.1145C17.4576 20.141 17.4576 20.141 17.4221 20.168C16.1208 21.1499 14.6678 21.7333 13.0729 21.9441C13.0446 21.9483 13.0162 21.9525 12.9869 21.9569C12.6718 21.9997 12.3553 21.9996 12.0378 21.9999C11.9924 22 11.9924 22 11.9462 22C9.53139 21.9962 7.29792 20.9993 5.56434 19.2667C5.50651 19.2093 5.50651 19.2093 5.44752 19.1507C4.79472 18.4886 4.26608 17.6977 3.84809 16.8569C3.83212 16.8251 3.81615 16.7933 3.79969 16.7605C3.11868 15.3868 3.11868 15.3868 3.11868 14.8488C3.06965 14.8423 3.06965 14.8423 3.01963 14.8356C2.5507 14.7649 2.21344 14.6005 1.83149 14.3133C1.76512 14.2636 1.76512 14.2636 1.69741 14.2129C1.30945 13.827 1.02617 13.2769 1.00186 12.7133C0.994611 12.2667 0.999628 11.8683 1.1879 11.4573C1.20294 11.4225 1.21798 11.3876 1.23348 11.3517C1.51293 10.7684 2.00334 10.3765 2.58218 10.1503C2.75879 10.0982 2.93578 10.0821 3.11868 10.074C3.12499 10.0441 3.13129 10.0143 3.13779 9.98351C3.65278 7.69021 5.15105 5.64493 7.05098 4.39167C7.37871 4.18012 7.71682 3.99431 8.06346 3.8187C8.10273 3.79841 8.10273 3.79841 8.14278 3.77772C8.19968 3.74958 8.25754 3.72349 8.316 3.69904C8.48957 3.62204 8.55515 3.58179 8.65192 3.40557C8.67305 3.34635 8.69324 3.28677 8.71259 3.2269C8.88775 2.75312 9.16172 2.39567 9.51172 2.04156C9.53954 2.01274 9.56736 1.98392 9.59602 1.95422C10.903 0.67565 12.9558 0.718828 14.3172 1.86306ZM10.009 2.92167C9.47351 3.62737 9.31964 4.33237 9.383 5.2099C9.47212 5.89733 9.87533 6.5356 10.3998 6.95323C10.8989 7.29602 11.398 7.50896 12.0003 7.48576C11.9562 7.36927 11.9108 7.25393 11.8622 7.13939C11.5704 6.4464 11.5092 5.71198 11.7428 4.98678C12.0232 4.26093 12.4993 3.74704 13.1883 3.43607C13.4982 3.31443 13.8168 3.24065 14.1456 3.2018C13.8201 2.59111 13.2842 2.29367 12.6702 2.08531C11.7183 1.81666 10.6627 2.15361 10.009 2.92167ZM13.0126 4.68661C12.6373 5.10947 12.4964 5.57512 12.5152 6.14702C12.6157 6.73441 12.8974 7.05634 13.3178 7.43224C13.4462 7.56028 13.4575 7.63432 13.4671 7.81765C13.4556 8.0462 13.4556 8.0462 13.3733 8.15513C12.8172 8.54593 11.8766 8.51354 11.2454 8.39045C11.0922 8.34995 10.9469 8.30211 10.7989 8.24438C10.7544 8.22821 10.7099 8.21205 10.664 8.19539C10.0037 7.93533 9.48638 7.48054 9.08031 6.88943C9.01391 6.79582 8.95001 6.71636 8.86812 6.63789C8.28198 7.03455 7.77584 7.4494 7.28724 7.97297C7.25501 8.00725 7.22279 8.04154 7.18958 8.07686C7.16063 8.108 7.13168 8.13915 7.10185 8.17124C6.94871 8.31355 6.79044 8.29975 6.59409 8.289C6.48422 8.25194 6.43884 8.22189 6.36883 8.12724C6.32195 7.97284 6.30474 7.82231 6.33665 7.66426C6.4654 7.42599 6.64171 7.24219 6.82739 7.05067C6.85792 7.01917 6.88845 6.98766 6.91991 6.95521C7.39011 6.47722 7.93458 6.05236 8.52487 5.7454C8.4824 5.43615 8.43992 5.1269 8.39615 4.80828C8.16875 4.88712 7.99548 4.97316 7.79278 5.09834C7.76081 5.11804 7.72884 5.13774 7.6959 5.15803C7.26556 5.42826 6.88376 5.74999 6.51431 6.10449C6.43991 6.17509 6.36467 6.24115 6.2857 6.30599C6.12816 6.44799 5.99921 6.6066 5.86468 6.77176C5.82923 6.81312 5.79378 6.85448 5.75725 6.8971C4.49489 8.38156 3.78665 10.3595 3.79164 12.3353C3.79177 12.4466 3.79076 12.5577 3.78968 12.6689C3.78703 13.3548 3.87288 14.0212 4.05457 14.6815C4.06567 14.7226 4.07677 14.7636 4.0882 14.806C4.24954 15.388 4.48377 15.9285 4.75218 16.4648C4.78732 16.5351 4.82174 16.6059 4.85605 16.6767C5.38562 17.7378 6.23417 18.651 7.15187 19.3559C7.18782 19.3841 7.22377 19.4124 7.26081 19.4415C8.97479 20.7442 11.1605 21.2172 13.2446 20.9178C14.4699 20.7065 15.6645 20.249 16.6771 19.4898C16.7 19.4727 16.7229 19.4556 16.7466 19.4379C17.0966 19.1745 17.4172 18.8819 17.729 18.5712C17.7866 18.514 17.845 18.4577 17.9034 18.4015C18.3918 17.9182 18.7914 17.3316 19.1227 16.723C19.1377 16.6962 19.1527 16.6694 19.1682 16.6417C20.2303 14.7319 20.508 12.4063 19.9643 10.2772C19.3762 8.11418 18.0567 6.19759 16.1657 5.07084C16.0087 4.98023 15.85 4.89339 15.6902 4.80828C15.6497 4.7864 15.6497 4.7864 15.6084 4.76407C14.7335 4.29638 13.8333 3.90151 13.0126 4.68661ZM2.31285 11.4844C2.06993 11.7557 1.95243 12.0698 1.93876 12.4391C1.95378 12.8453 2.10968 13.223 2.38927 13.5101C2.62633 13.6997 2.62633 13.6997 2.90415 13.7778C2.90105 13.7323 2.89795 13.6867 2.89476 13.6398C2.84216 12.8079 2.84333 11.9763 2.90415 11.145C2.66999 11.145 2.48194 11.3259 2.31285 11.4844ZM21.0964 11.145C21.0995 11.1873 21.1026 11.2296 21.1058 11.2733C21.1623 12.1082 21.1532 12.9432 21.0964 13.7778C21.4561 13.6669 21.7318 13.45 21.9147 13.1064C22.0815 12.7418 22.1054 12.322 21.976 11.9398C21.8202 11.5842 21.5674 11.3055 21.2251 11.145C21.1827 11.145 21.1402 11.145 21.0964 11.145Z" fill="white"/>
<path d="M14.3172 1.86306C14.7743 2.269 15.1234 2.7379 15.3228 3.33009C15.4374 3.60229 15.579 3.68294 15.8324 3.79028C15.9012 3.81821 15.97 3.84592 16.039 3.87343C17.947 4.63559 19.5282 6.58767 20.367 8.4675C20.586 8.98671 20.7917 9.51234 20.8819 10.074C20.9069 10.0746 20.9319 10.0752 20.9576 10.0759C21.5622 10.1125 22.0684 10.4398 22.4828 10.8856C22.9619 11.4759 23.0405 12.1897 22.9843 12.93C22.8688 13.5743 22.4928 14.0869 21.9871 14.455C21.6584 14.6812 21.2831 14.8488 20.8819 14.8488C20.8766 14.8766 20.8713 14.9044 20.8658 14.933C20.4273 16.9769 19.1056 18.8887 17.4923 20.1145C17.4576 20.141 17.4576 20.141 17.4221 20.168C16.1208 21.1499 14.6678 21.7333 13.0729 21.9441C13.0446 21.9483 13.0162 21.9525 12.9869 21.9569C12.6718 21.9997 12.3553 21.9996 12.0378 21.9999C11.9924 22 11.9924 22 11.9462 22C9.53139 21.9962 7.29792 20.9993 5.56434 19.2667C5.50651 19.2093 5.50651 19.2093 5.44752 19.1507C4.79472 18.4886 4.26608 17.6977 3.84809 16.8569C3.83212 16.8251 3.81615 16.7933 3.79969 16.7605C3.11868 15.3868 3.11868 15.3868 3.11868 14.8488C3.06965 14.8423 3.06965 14.8423 3.01963 14.8356C2.5507 14.7649 2.21344 14.6005 1.83149 14.3133C1.76512 14.2636 1.76512 14.2636 1.69741 14.2129C1.30945 13.827 1.02617 13.2769 1.00186 12.7133C0.994611 12.2667 0.999628 11.8683 1.1879 11.4573C1.20294 11.4225 1.21798 11.3876 1.23348 11.3517C1.51293 10.7684 2.00334 10.3765 2.58218 10.1503C2.75879 10.0982 2.93578 10.0821 3.11868 10.074C3.12499 10.0441 3.13129 10.0143 3.13779 9.98351C3.65278 7.69021 5.15105 5.64493 7.05098 4.39167C7.37871 4.18012 7.71682 3.99431 8.06346 3.8187C8.10273 3.79841 8.10273 3.79841 8.14278 3.77772C8.19968 3.74958 8.25754 3.72349 8.316 3.69904C8.48957 3.62204 8.55515 3.58179 8.65192 3.40557C8.67305 3.34635 8.69324 3.28677 8.71259 3.2269C8.88775 2.75312 9.16172 2.39567 9.51172 2.04156C9.53954 2.01274 9.56736 1.98392 9.59602 1.95422C10.903 0.67565 12.9558 0.718828 14.3172 1.86306ZM10.009 2.92167C9.47351 3.62737 9.31964 4.33237 9.383 5.2099C9.47212 5.89733 9.87533 6.5356 10.3998 6.95323C10.8989 7.29602 11.398 7.50896 12.0003 7.48576C11.9562 7.36927 11.9108 7.25393 11.8622 7.13939C11.5704 6.4464 11.5092 5.71198 11.7428 4.98678C12.0232 4.26093 12.4993 3.74704 13.1883 3.43607C13.4982 3.31443 13.8168 3.24065 14.1456 3.2018C13.8201 2.59111 13.2842 2.29367 12.6702 2.08531C11.7183 1.81666 10.6627 2.15361 10.009 2.92167ZM13.0126 4.68661C12.6373 5.10947 12.4964 5.57512 12.5152 6.14702C12.6157 6.73441 12.8974 7.05634 13.3178 7.43224C13.4462 7.56028 13.4575 7.63432 13.4671 7.81765C13.4556 8.0462 13.4556 8.0462 13.3733 8.15513C12.8172 8.54593 11.8766 8.51354 11.2454 8.39045C11.0922 8.34995 10.9469 8.30211 10.7989 8.24438C10.7544 8.22821 10.7099 8.21205 10.664 8.19539C10.0037 7.93533 9.48638 7.48054 9.08031 6.88943C9.01391 6.79582 8.95001 6.71636 8.86812 6.63789C8.28198 7.03455 7.77584 7.4494 7.28724 7.97297C7.25501 8.00725 7.22279 8.04154 7.18958 8.07686C7.16063 8.108 7.13168 8.13915 7.10185 8.17124C6.94871 8.31355 6.79044 8.29975 6.59409 8.289C6.48422 8.25194 6.43884 8.22189 6.36883 8.12724C6.32195 7.97284 6.30474 7.82231 6.33665 7.66426C6.4654 7.42599 6.64171 7.24219 6.82739 7.05067C6.85792 7.01917 6.88845 6.98766 6.91991 6.95521C7.39011 6.47722 7.93458 6.05236 8.52487 5.7454C8.4824 5.43615 8.43992 5.1269 8.39615 4.80828C8.16875 4.88712 7.99548 4.97316 7.79278 5.09834C7.76081 5.11804 7.72884 5.13774 7.6959 5.15803C7.26556 5.42826 6.88376 5.74999 6.51431 6.10449C6.43991 6.17509 6.36467 6.24115 6.2857 6.30599C6.12816 6.44799 5.99921 6.6066 5.86468 6.77176C5.82923 6.81312 5.79378 6.85448 5.75725 6.8971C4.49489 8.38156 3.78665 10.3595 3.79164 12.3353C3.79177 12.4466 3.79076 12.5577 3.78968 12.6689C3.78703 13.3548 3.87288 14.0212 4.05457 14.6815C4.06567 14.7226 4.07677 14.7636 4.0882 14.806C4.24954 15.388 4.48377 15.9285 4.75218 16.4648C4.78732 16.5351 4.82174 16.6059 4.85605 16.6767C5.38562 17.7378 6.23417 18.651 7.15187 19.3559C7.18782 19.3841 7.22377 19.4124 7.26081 19.4415C8.97479 20.7442 11.1605 21.2172 13.2446 20.9178C14.4699 20.7065 15.6645 20.249 16.6771 19.4898C16.7 19.4727 16.7229 19.4556 16.7466 19.4379C17.0966 19.1745 17.4172 18.8819 17.729 18.5712C17.7866 18.514 17.845 18.4577 17.9034 18.4015C18.3918 17.9182 18.7914 17.3316 19.1227 16.723C19.1377 16.6962 19.1527 16.6694 19.1682 16.6417C20.2303 14.7319 20.508 12.4063 19.9643 10.2772C19.3762 8.11418 18.0567 6.19759 16.1657 5.07084C16.0087 4.98023 15.85 4.89339 15.6902 4.80828C15.6497 4.7864 15.6497 4.7864 15.6084 4.76407C14.7335 4.29638 13.8333 3.90151 13.0126 4.68661ZM2.31285 11.4844C2.06993 11.7557 1.95243 12.0698 1.93876 12.4391C1.95378 12.8453 2.10968 13.223 2.38927 13.5101C2.62633 13.6997 2.62633 13.6997 2.90415 13.7778C2.90105 13.7323 2.89795 13.6867 2.89476 13.6398C2.84216 12.8079 2.84333 11.9763 2.90415 11.145C2.66999 11.145 2.48194 11.3259 2.31285 11.4844ZM21.0964 11.145C21.0995 11.1873 21.1026 11.2296 21.1058 11.2733C21.1623 12.1082 21.1532 12.9432 21.0964 13.7778C21.4561 13.6669 21.7318 13.45 21.9147 13.1064C22.0815 12.7418 22.1054 12.322 21.976 11.9398C21.8202 11.5842 21.5674 11.3055 21.2251 11.145C21.1827 11.145 21.1402 11.145 21.0964 11.145Z" stroke="white" stroke-width="0.2" mask="url(#path-3-outside-1_1138_16281)"/>
<path d="M8.43066 12.5068C8.50783 12.4982 8.58312 12.5019 8.65723 12.5146C8.58478 12.5055 8.50916 12.5025 8.43066 12.5068Z" fill="white" stroke="white"/>
<mask id="path-5-inside-2_1138_16281" fill="white">
<path d="M5.72625 9.01933C5.84926 9.11441 5.92427 9.18808 5.99409 9.32443C6.01094 9.54253 5.99909 9.67306 5.86017 9.84745C5.74414 9.96914 5.68123 9.97826 5.50864 10C5.29582 9.99301 5.20233 9.90598 5.05667 9.76028C4.98538 9.62108 4.99535 9.47588 5.01203 9.32443C5.14817 9.01869 5.40745 8.96329 5.72625 9.01933Z"/>
</mask>
<path d="M5.72625 9.01933C5.84926 9.11441 5.92427 9.18808 5.99409 9.32443C6.01094 9.54253 5.99909 9.67306 5.86017 9.84745C5.74414 9.96914 5.68123 9.97826 5.50864 10C5.29582 9.99301 5.20233 9.90598 5.05667 9.76028C4.98538 9.62108 4.99535 9.47588 5.01203 9.32443C5.14817 9.01869 5.40745 8.96329 5.72625 9.01933Z" fill="white"/>
<path d="M5.72625 9.01933L6.33783 8.22814L6.14251 8.07717L5.89938 8.03443L5.72625 9.01933ZM5.99409 9.32443L6.99111 9.24736L6.97565 9.04726L6.88417 8.86863L5.99409 9.32443ZM5.86017 9.84745L6.58389 10.5375L6.61461 10.5053L6.64234 10.4705L5.86017 9.84745ZM5.50864 10L5.4758 10.9995L5.55501 11.0021L5.63364 10.9922L5.50864 10ZM5.05667 9.76028L4.16658 10.2161L4.23828 10.3561L4.34948 10.4673L5.05667 9.76028ZM5.01203 9.32443L4.0985 8.91764L4.03509 9.06005L4.01803 9.215L5.01203 9.32443ZM5.72625 9.01933L5.11468 9.81051C5.13574 9.82679 5.14531 9.83491 5.14892 9.8381C5.15169 9.84054 5.147 9.83662 5.13872 9.82747C5.12995 9.81778 5.12116 9.80667 5.11354 9.79548C5.10624 9.78476 5.10318 9.77861 5.104 9.78022L5.99409 9.32443L6.88417 8.86863C6.7233 8.55448 6.52673 8.37416 6.33783 8.22814L5.72625 9.01933ZM5.99409 9.32443L4.99706 9.40149C5.00023 9.44245 4.99998 9.4549 5.00001 9.45366C5.00009 9.44956 5.0009 9.4233 5.00953 9.38463C5.01867 9.34365 5.03308 9.30428 5.05031 9.27031C5.06637 9.23867 5.0793 9.22275 5.078 9.22439L5.86017 9.84745L6.64234 10.4705C6.78524 10.2911 6.90366 10.0796 6.96156 9.82003C7.01379 9.58588 7.00095 9.37462 6.99111 9.24736L5.99409 9.32443ZM5.86017 9.84745L5.13645 9.15736C5.13258 9.16142 5.15118 9.1411 5.18839 9.11375C5.23077 9.08261 5.28313 9.05262 5.3422 9.02958C5.39622 9.0085 5.43584 9.0012 5.4412 9.00023C5.4438 8.99976 5.44158 9.00022 5.43078 9.00173C5.4196 9.00328 5.40583 9.00505 5.38364 9.00784L5.50864 10L5.63364 10.9922C5.68451 10.9857 5.87839 10.9672 6.06903 10.8928C6.30676 10.8001 6.46955 10.6575 6.58389 10.5375L5.86017 9.84745ZM5.50864 10L5.54147 9.00054C5.55447 9.00097 5.58934 9.00346 5.63721 9.0168C5.68732 9.03077 5.73325 9.05147 5.77136 9.0743C5.80605 9.09508 5.82413 9.11165 5.82063 9.10855C5.81431 9.10297 5.80137 9.09078 5.76385 9.05325L5.05667 9.76028L4.34948 10.4673C4.40863 10.5265 4.55234 10.6754 4.74358 10.79C4.97408 10.9281 5.22006 10.9911 5.4758 10.9995L5.50864 10ZM5.05667 9.76028L5.94675 9.30448C5.966 9.34207 5.97929 9.37948 5.9878 9.41375C5.9961 9.44717 5.99873 9.47309 5.99959 9.48739C6.00039 9.5009 5.99966 9.5052 6.00024 9.49514C6.00088 9.48416 6.00237 9.46703 6.00602 9.43385L5.01203 9.32443L4.01803 9.215C4.0023 9.35786 3.94452 9.78244 4.16658 10.2161L5.05667 9.76028ZM5.01203 9.32443L5.92555 9.73121C5.91577 9.75318 5.8895 9.80199 5.83501 9.85523C5.77873 9.9102 5.7126 9.95002 5.64791 9.97398C5.53331 10.0164 5.47601 9.99067 5.55312 10.0042L5.72625 9.01933L5.89938 8.03443C5.65769 7.99194 5.31135 7.96588 4.95337 8.09844C4.55209 8.24705 4.26381 8.54641 4.0985 8.91764L5.01203 9.32443Z" fill="white" mask="url(#path-5-inside-2_1138_16281)"/>
</svg>
