<svg width="28" height="28" viewBox="0 0 28 28" fill="none" xmlns="http://www.w3.org/2000/svg">
<path d="M12.917 4.74778C9.64052 5.24243 7.02018 7.94847 6.6262 11.4264L6.22384 14.9783C6.12387 15.8609 5.76617 16.6914 5.19803 17.3601C3.99239 18.7792 4.97091 21 6.80178 21H21.1981C23.029 21 24.0075 18.7792 22.8019 17.3601C22.2338 16.6914 21.8761 15.8609 21.7761 14.9783L21.5102 12.6312M17.5 23.3334C16.9905 24.6928 15.6158 25.6667 14 25.6667C12.3841 25.6667 11.0094 24.6928 10.5 23.3334M23.3333 5.83337C23.3333 7.76637 21.7663 9.33337 19.8333 9.33337C17.9003 9.33337 16.3333 7.76637 16.3333 5.83337C16.3333 3.90038 17.9003 2.33337 19.8333 2.33337C21.7663 2.33337 23.3333 3.90038 23.3333 5.83337Z" stroke="black" stroke-width="1.5" stroke-linecap="round"/>
</svg>
