<svg width="24" height="24" viewBox="0 0 24 24" fill="none" xmlns="http://www.w3.org/2000/svg">
<path d="M3.22569 1.21182C3.27236 1.21164 3.31903 1.21147 3.36711 1.21129C3.52367 1.21078 3.68023 1.2106 3.83678 1.21042C3.94898 1.21012 4.06117 1.20981 4.17336 1.20948C4.51017 1.20858 4.84698 1.20809 5.18379 1.20767C5.34262 1.20746 5.50145 1.20721 5.66028 1.20697C6.18866 1.20617 6.71704 1.20549 7.24542 1.20515C7.38244 1.20506 7.51946 1.20497 7.65648 1.20488C7.69053 1.20486 7.72459 1.20483 7.75967 1.20481C8.31077 1.20442 8.86186 1.20323 9.41296 1.20171C9.97948 1.20016 10.546 1.19932 11.1125 1.19917C11.4303 1.19907 11.7481 1.19866 12.0659 1.19746C12.365 1.19636 12.6642 1.19617 12.9634 1.19665C13.0729 1.19667 13.1824 1.19638 13.2919 1.19573C14.6614 1.18812 14.6614 1.18812 15.1908 1.6448C15.5509 2.00131 15.77 2.41784 15.7733 2.93091C15.7723 2.99347 15.7723 2.99347 15.7713 3.0573C15.7713 3.10263 15.7713 3.14796 15.7714 3.19467C15.7712 3.3428 15.7698 3.49088 15.7683 3.639C15.768 3.74238 15.7677 3.84575 15.7675 3.94913C15.7668 4.21992 15.7649 4.4907 15.7629 4.76149C15.7609 5.03833 15.7601 5.31517 15.7591 5.59201C15.7571 6.13425 15.7539 6.67648 15.75 7.21872C15.7777 7.21854 15.8054 7.21837 15.8339 7.21819C16.5105 7.21404 17.1871 7.21094 17.8636 7.209C18.1908 7.20804 18.518 7.20673 18.8452 7.20457C19.1613 7.20249 19.4774 7.20141 19.7935 7.20093C19.9137 7.20058 20.034 7.19991 20.1543 7.19889C21.6939 7.1864 21.6939 7.1864 22.3077 7.77243C22.6273 8.10684 22.7865 8.52546 22.7875 8.98746C22.7877 9.03098 22.788 9.07451 22.7882 9.11935C22.7882 9.19047 22.7882 9.19047 22.7881 9.26304C22.7883 9.31372 22.7885 9.36441 22.7887 9.41663C22.7892 9.5868 22.7894 9.75696 22.7895 9.92712C22.7898 10.049 22.7901 10.1709 22.7905 10.2928C22.7914 10.6588 22.7919 11.0248 22.7923 11.3908C22.7925 11.5634 22.7927 11.7359 22.793 11.9085C22.7938 12.4825 22.7945 13.0565 22.7948 13.6304C22.7949 13.7793 22.795 13.9282 22.7951 14.077C22.7951 14.114 22.7951 14.151 22.7951 14.1891C22.7955 14.788 22.7967 15.3868 22.7982 15.9857C22.7998 16.6011 22.8006 17.2166 22.8008 17.832C22.8009 18.1773 22.8013 18.5226 22.8025 18.8679C22.8036 19.1929 22.8038 19.518 22.8033 19.843C22.8033 19.962 22.8036 20.0811 22.8042 20.2001C22.8119 21.6957 22.8119 21.6957 22.2275 22.3077C21.8585 22.6604 21.4211 22.7868 20.9188 22.7875C20.8875 22.7876 20.8563 22.7877 20.824 22.7878C20.7191 22.7882 20.6141 22.7881 20.5091 22.7881C20.4332 22.7883 20.3572 22.7884 20.2813 22.7886C20.0724 22.7891 19.8636 22.7893 19.6547 22.7894C19.4295 22.7896 19.2043 22.79 18.9791 22.7904C18.4351 22.7914 17.8911 22.7918 17.3471 22.7923C17.0909 22.7925 16.8346 22.7927 16.5784 22.793C15.7265 22.7938 14.8745 22.7944 14.0226 22.7948C13.8016 22.7949 13.5805 22.795 13.3595 22.7951C13.277 22.7951 13.277 22.7951 13.193 22.7951C12.3031 22.7955 11.4133 22.7967 10.5235 22.7982C9.60969 22.7998 8.69591 22.8006 7.78212 22.8008C7.26915 22.8009 6.75619 22.8013 6.24322 22.8025C5.80632 22.8035 5.36942 22.8039 4.93251 22.8034C4.70971 22.8032 4.48693 22.8033 4.26413 22.8042C4.05986 22.805 3.85561 22.805 3.65134 22.8042C3.57775 22.8041 3.50415 22.8043 3.43055 22.8049C2.74877 22.8097 2.19417 22.7067 1.69225 22.2275C1.33959 21.8585 1.21321 21.421 1.21245 20.9188C1.21234 20.8875 1.21223 20.8562 1.21212 20.824C1.2118 20.719 1.21182 20.6141 1.21184 20.5091C1.21169 20.4332 1.21151 20.3572 1.21132 20.2813C1.21085 20.0724 1.21068 19.8635 1.21055 19.6547C1.21037 19.4295 1.20992 19.2042 1.20951 18.979C1.20859 18.435 1.20811 17.8911 1.2077 17.3471C1.20749 17.0908 1.20724 16.8346 1.20699 16.5783C1.2062 15.7264 1.20552 14.8745 1.20518 14.0226C1.20509 13.8015 1.205 13.5805 1.20491 13.3594C1.20488 13.3045 1.20486 13.2496 1.20484 13.1929C1.20445 12.3031 1.20326 11.4133 1.20174 10.5234C1.20019 9.60966 1.19934 8.69588 1.19919 7.7821C1.19909 7.26913 1.19868 6.75616 1.19749 6.24319C1.19647 5.80629 1.19609 5.36939 1.19655 4.93248C1.19676 4.70969 1.19667 4.4869 1.19576 4.2641C1.19493 4.05983 1.19498 3.85558 1.19571 3.65132C1.19582 3.57772 1.19562 3.50412 1.19506 3.43053C1.19021 2.74874 1.29326 2.19414 1.77245 1.69223C2.19 1.2932 2.66928 1.21171 3.22569 1.21182ZM2.76562 2.95309C2.73752 3.09596 2.73752 3.09596 2.74202 3.25821C2.74175 3.28892 2.74148 3.31963 2.7412 3.35127C2.74051 3.45463 2.74116 3.55793 2.74181 3.66129C2.74159 3.73595 2.74129 3.81061 2.74092 3.88527C2.74014 4.09079 2.74053 4.29629 2.74111 4.5018C2.74153 4.72331 2.74088 4.9448 2.74036 5.1663C2.73953 5.60036 2.73971 6.03442 2.74025 6.46848C2.74067 6.82115 2.74073 7.17382 2.74053 7.5265C2.7405 7.57663 2.74047 7.62677 2.74044 7.67843C2.74038 7.78027 2.74032 7.88211 2.74026 7.98396C2.73972 8.93961 2.74034 9.89527 2.74135 10.8509C2.74218 11.6715 2.74204 12.492 2.74117 13.3125C2.74017 14.2647 2.73977 15.2168 2.74035 16.169C2.74041 16.2705 2.74047 16.372 2.74053 16.4734C2.74056 16.5234 2.74059 16.5733 2.74062 16.6247C2.74078 16.9771 2.7405 17.3295 2.74006 17.6819C2.73954 18.1111 2.73968 18.5404 2.74068 18.9696C2.74117 19.1887 2.74136 19.4079 2.74074 19.627C2.74019 19.8274 2.74049 20.0278 2.74149 20.2283C2.7417 20.301 2.74159 20.3736 2.74114 20.4463C2.74057 20.5448 2.74115 20.6432 2.74202 20.7417C2.74205 20.7965 2.74208 20.8513 2.74211 20.9078C2.77058 21.0762 2.81917 21.1315 2.95312 21.2343C3.06417 21.2612 3.06417 21.2612 3.18525 21.2556C3.23122 21.2556 3.27719 21.2556 3.32456 21.2556C3.37383 21.2546 3.4231 21.2536 3.47387 21.2527C3.52459 21.2524 3.5753 21.2521 3.62756 21.2518C3.78948 21.2508 3.95136 21.2484 4.11327 21.2461C4.22308 21.2451 4.33288 21.2443 4.44268 21.2435C4.7118 21.2414 4.98089 21.2383 5.24999 21.2343C5.25002 21.2034 5.25004 21.1724 5.25007 21.1405C5.25077 20.3853 5.25277 19.6302 5.25618 18.875C5.25781 18.5099 5.259 18.1447 5.25916 17.7795C5.2593 17.461 5.26027 17.1426 5.2622 16.8241C5.2632 16.6556 5.2638 16.4872 5.26341 16.3187C5.26298 16.1302 5.2644 15.9417 5.26596 15.7532C5.26535 15.6702 5.26535 15.6702 5.26473 15.5856C5.26956 15.236 5.32685 14.9614 5.53124 14.6718C5.85843 14.3618 6.14972 14.2828 6.59083 14.2832C6.6359 14.2829 6.68098 14.2826 6.72742 14.2823C6.87631 14.2814 7.02518 14.2812 7.17407 14.2811C7.27781 14.2808 7.38156 14.2805 7.48531 14.2801C7.70282 14.2796 7.92033 14.2794 8.13784 14.2795C8.41593 14.2795 8.694 14.2782 8.97209 14.2766C9.18643 14.2755 9.40077 14.2754 9.61511 14.2754C9.7176 14.2753 9.82009 14.2749 9.92257 14.2742C10.0663 14.2732 10.2099 14.2735 10.3536 14.2741C10.3956 14.2735 10.4375 14.273 10.4808 14.2725C10.8144 14.2758 11.0973 14.3588 11.358 14.5731C11.3823 14.6028 11.4066 14.6325 11.4316 14.6631C11.4566 14.6924 11.4817 14.7217 11.5074 14.7519C11.7313 15.0922 11.7395 15.3797 11.739 15.7798C11.7397 15.8683 11.7397 15.8683 11.7405 15.9587C11.7417 16.1197 11.7422 16.2807 11.7425 16.4418C11.7429 16.6104 11.7441 16.779 11.7453 16.9476C11.7473 17.2665 11.7487 17.5854 11.7497 17.9043C11.751 18.2675 11.7531 18.6307 11.7552 18.9939C11.7595 19.7407 11.7628 20.4875 11.7656 21.2343C12.5855 21.2343 13.4053 21.2343 14.25 21.2343C14.2521 18.9146 14.2538 16.5948 14.2548 14.2751C14.2549 14.0014 14.255 13.7277 14.2551 13.4541C14.2552 13.3996 14.2552 13.3451 14.2552 13.289C14.2556 12.406 14.2564 11.523 14.2572 10.6399C14.2581 9.73438 14.2586 8.82882 14.2588 7.92325C14.2589 7.36415 14.2593 6.80505 14.2601 6.24594C14.2606 5.86292 14.2608 5.47989 14.2606 5.09687C14.2606 4.87565 14.2607 4.65443 14.2612 4.43321C14.2616 4.23087 14.2616 4.02853 14.2613 3.82618C14.2613 3.75281 14.2614 3.67943 14.2617 3.60606C14.2621 3.50664 14.2619 3.40723 14.2615 3.30781C14.2616 3.25249 14.2616 3.19717 14.2616 3.14017C14.2503 3.00344 14.2322 2.92551 14.1562 2.81247C13.9947 2.73172 13.8085 2.75866 13.6307 2.75869C13.5854 2.75852 13.5401 2.75835 13.4934 2.75817C13.3406 2.75765 13.1878 2.75747 13.035 2.75729C12.9259 2.757 12.8167 2.75669 12.7075 2.75636C12.4103 2.75554 12.1131 2.75505 11.8159 2.75466C11.6303 2.75442 11.4448 2.75414 11.2593 2.75384C10.7459 2.75305 10.2325 2.75237 9.71906 2.75203C9.5858 2.75194 9.45254 2.75185 9.31928 2.75175C9.28616 2.75173 9.25304 2.75171 9.21891 2.75169C8.68207 2.7513 8.14523 2.75011 7.60839 2.74859C7.0575 2.74704 6.50662 2.74619 5.95573 2.74604C5.64632 2.74593 5.3369 2.74551 5.02749 2.74433C4.73654 2.74325 4.44561 2.74304 4.15466 2.74353C4.04771 2.74355 3.94075 2.74325 3.8338 2.74261C3.68811 2.74178 3.54248 2.74211 3.39679 2.74273C3.35417 2.74221 3.31156 2.7417 3.26765 2.74117C3.20913 2.74177 3.20913 2.74177 3.14943 2.74239C3.09899 2.74232 3.09899 2.74232 3.04753 2.74225C2.90607 2.77722 2.85203 2.83708 2.76562 2.95309ZM15.75 8.76559C15.75 12.8803 15.75 16.995 15.75 21.2343C17.498 21.2343 19.2459 21.2343 21.0469 21.2343C21.2427 21.0558 21.2427 21.0558 21.258 20.8354C21.2585 20.793 21.2589 20.7507 21.2594 20.707C21.259 20.6606 21.2586 20.6142 21.2582 20.5664C21.2586 20.4923 21.2586 20.4923 21.2591 20.4167C21.2598 20.2506 21.2592 20.0845 21.2586 19.9184C21.2589 19.7995 21.2592 19.6806 21.2596 19.5617C21.2604 19.2721 21.2603 18.9824 21.2597 18.6927C21.2593 18.4573 21.2593 18.2219 21.2595 17.9865C21.2595 17.953 21.2595 17.9196 21.2595 17.8851C21.2596 17.817 21.2597 17.749 21.2597 17.681C21.2603 17.0429 21.2596 16.4049 21.2586 15.7669C21.2578 15.2192 21.2579 14.6716 21.2588 14.1239C21.2598 13.4882 21.2602 12.8525 21.2596 12.2167C21.2596 12.149 21.2595 12.0812 21.2595 12.0134C21.2594 11.9801 21.2594 11.9467 21.2594 11.9124C21.2592 11.6772 21.2595 11.442 21.2599 11.2069C21.2605 10.8905 21.2601 10.5741 21.259 10.2577C21.2588 10.1413 21.2588 10.025 21.2592 9.90868C21.2598 9.75027 21.2591 9.59191 21.2582 9.4335C21.2588 9.36393 21.2588 9.36393 21.2594 9.29295C21.259 9.25056 21.2585 9.20818 21.258 9.16451C21.2579 9.10966 21.2579 9.10966 21.2579 9.05371C21.2365 8.92223 21.2365 8.92223 21.0469 8.76559C19.2989 8.76559 17.5509 8.76559 15.75 8.76559ZM6.74999 15.75C6.74999 17.5598 6.74999 19.3697 6.74999 21.2343C7.89468 21.2343 9.03937 21.2343 10.2187 21.2343C10.2187 19.4245 10.2187 17.6147 10.2187 15.75C9.07406 15.75 7.92937 15.75 6.74999 15.75Z" fill="#111827"/>
<path d="M17.7188 17.7188C18.2292 17.7188 18.7397 17.7188 19.2656 17.7188C19.2656 18.2292 19.2656 18.7397 19.2656 19.2656C18.7552 19.2656 18.2447 19.2656 17.7188 19.2656C17.7188 18.7552 17.7188 18.2447 17.7188 17.7188Z" fill="#111827"/>
<path d="M10.7344 11.4844C11.2448 11.4844 11.7553 11.4844 12.2812 11.4844C12.2812 11.9948 12.2812 12.5053 12.2812 13.0312C11.7708 13.0312 11.2603 13.0312 10.7344 13.0312C10.7344 12.5208 10.7344 12.0103 10.7344 11.4844Z" fill="#111827"/>
<path d="M7.73438 11.4844C8.24484 11.4844 8.75531 11.4844 9.28125 11.4844C9.28125 11.9948 9.28125 12.5053 9.28125 13.0312C8.77078 13.0312 8.26031 13.0312 7.73438 13.0312C7.73438 12.5208 7.73438 12.0103 7.73438 11.4844Z" fill="#111827"/>
<path d="M4.73438 11.4844C5.24484 11.4844 5.75531 11.4844 6.28125 11.4844C6.28125 11.9948 6.28125 12.5053 6.28125 13.0312C5.77078 13.0312 5.26031 13.0312 4.73438 13.0312C4.73438 12.5208 4.73438 12.0103 4.73438 11.4844Z" fill="#111827"/>
<path d="M17.7188 10.7344C18.2292 10.7344 18.7397 10.7344 19.2656 10.7344C19.2656 11.2448 19.2656 11.7553 19.2656 12.2812C18.7552 12.2812 18.2447 12.2812 17.7188 12.2812C17.7188 11.7708 17.7188 11.2603 17.7188 10.7344Z" fill="#111827"/>
<path d="M10.7344 7.96875C11.2448 7.96875 11.7553 7.96875 12.2812 7.96875C12.2812 8.47922 12.2812 8.98969 12.2812 9.51562C11.7708 9.51562 11.2603 9.51562 10.7344 9.51562C10.7344 9.00516 10.7344 8.49469 10.7344 7.96875Z" fill="#111827"/>
<path d="M7.73438 7.96875C8.24484 7.96875 8.75531 7.96875 9.28125 7.96875C9.28125 8.47922 9.28125 8.98969 9.28125 9.51562C8.77078 9.51562 8.26031 9.51562 7.73438 9.51562C7.73438 9.00516 7.73438 8.49469 7.73438 7.96875Z" fill="#111827"/>
<path d="M4.73438 7.96875C5.24484 7.96875 5.75531 7.96875 6.28125 7.96875C6.28125 8.47922 6.28125 8.98969 6.28125 9.51562C5.77078 9.51562 5.26031 9.51562 4.73438 9.51562C4.73438 9.00516 4.73438 8.49469 4.73438 7.96875Z" fill="#111827"/>
<path d="M17.7188 14.25C18.2292 14.25 18.7397 14.25 19.2656 14.25C19.2656 14.745 19.2656 15.24 19.2656 15.75C18.7552 15.75 18.2447 15.75 17.7188 15.75C17.7188 15.255 17.7188 14.76 17.7188 14.25Z" fill="#111827"/>
<path d="M10.7344 4.5C11.2448 4.5 11.7553 4.5 12.2812 4.5C12.2812 4.995 12.2812 5.49 12.2812 6C11.7708 6 11.2603 6 10.7344 6C10.7344 5.505 10.7344 5.01 10.7344 4.5Z" fill="#111827"/>
<path d="M7.73438 4.5C8.24484 4.5 8.75531 4.5 9.28125 4.5C9.28125 4.995 9.28125 5.49 9.28125 6C8.77078 6 8.26031 6 7.73438 6C7.73438 5.505 7.73438 5.01 7.73438 4.5Z" fill="#111827"/>
<path d="M4.73438 4.5C5.24484 4.5 5.75531 4.5 6.28125 4.5C6.28125 4.995 6.28125 5.49 6.28125 6C5.77078 6 5.26031 6 4.73438 6C4.73438 5.505 4.73438 5.01 4.73438 4.5Z" fill="#111827"/>
</svg>
