<svg width="24" height="24" viewBox="0 0 24 24" fill="none" xmlns="http://www.w3.org/2000/svg">
<path d="M11.3854 1.71735C11.5798 1.86505 11.7581 2.02603 11.9344 2.19461C11.9786 2.23397 11.9786 2.23397 12.0237 2.27412C12.6731 2.8749 13.0842 3.84809 13.1398 4.72255C13.161 5.29387 13.104 5.71304 12.7487 6.18007C12.7345 6.19421 12.7204 6.20835 12.7058 6.22292C12.6916 6.30898 12.6777 6.39509 12.6651 6.4814C12.618 6.80249 12.5722 7.09645 12.4058 7.37999C12.3908 7.40932 12.3758 7.43866 12.3603 7.46888C12.2041 7.74079 11.9776 7.9208 11.7408 8.11953C11.4661 8.35159 11.2541 8.56615 11.1631 8.92275C11.1545 9.09321 11.1631 9.26333 11.1702 9.43374C11.1756 9.66953 11.1581 9.83281 11.0345 10.037C10.8428 10.1729 10.6912 10.174 10.4613 10.1682C10.0894 10.1735 9.86047 10.3298 9.56105 10.5345C9.22488 10.7635 8.86361 10.8097 8.46324 10.7655C8.07208 10.6857 7.78462 10.5002 7.47759 10.2512C7.43739 10.7939 7.72259 11.1382 8.05112 11.5375C8.17423 11.6887 8.29302 11.8433 8.41235 11.9976C8.46328 12.0631 8.51423 12.1287 8.56519 12.1942C8.59072 12.2271 8.61624 12.26 8.64255 12.2938C8.74641 12.4275 8.8504 12.561 8.9544 12.6945C9.02993 12.7916 9.10533 12.8887 9.18072 12.9859C9.267 13.097 9.35376 13.2078 9.44119 13.318C10.2203 14.3056 10.2203 14.3056 10.2203 14.6652C10.2486 14.6652 10.2768 14.6652 10.306 14.6652C10.3164 14.6285 10.3269 14.5918 10.3376 14.5539C10.5895 13.8747 11.1876 13.397 11.8235 13.0962C12.6079 12.7792 13.4244 12.7821 14.2138 13.0903C14.9385 13.4147 15.5174 13.9593 15.8186 14.7009C16.132 15.5585 16.0998 16.5073 15.7147 17.3368C15.5714 17.6301 15.4069 17.8902 15.1914 18.1364C15.1687 18.1652 15.146 18.194 15.1226 18.2237C14.8125 18.6059 14.3982 18.8451 13.9693 19.073C13.8084 19.1598 13.6902 19.2456 13.5629 19.3792C13.5346 19.3792 13.5063 19.3792 13.4772 19.3792C13.5075 19.4221 13.5075 19.4221 13.5383 19.4658C13.8521 19.9303 13.9856 20.3882 13.8857 20.9489C13.7802 21.3502 13.5547 21.7416 13.2201 21.9933C12.8567 22.2044 12.574 22.3013 12.1594 22.304C12.1097 22.3054 12.1097 22.3054 12.059 22.3067C11.8178 22.3083 11.6415 22.2608 11.4202 22.1648C11.4122 22.1939 11.4043 22.2231 11.3961 22.2531C11.2245 22.6039 10.8874 22.7988 10.5354 22.9382C10.3711 22.9848 10.2189 22.9917 10.0496 22.9914C9.99956 22.9919 9.99956 22.9919 9.94851 22.9923C9.83855 22.9931 9.7286 22.9933 9.61864 22.9934C9.54131 22.9937 9.46398 22.994 9.38666 22.9943C9.22434 22.9948 9.06202 22.9949 8.89969 22.9949C8.69416 22.9949 8.48866 22.996 8.28314 22.9975C8.12311 22.9985 7.9631 22.9986 7.80307 22.9986C7.72747 22.9987 7.65186 22.9991 7.57626 22.9997C6.88888 23.0053 6.20096 22.9236 5.55718 22.6683C5.52396 22.6555 5.49074 22.6427 5.45652 22.6295C3.95406 22.0342 2.87842 20.8712 2.22926 19.4089C1.94023 18.703 1.85484 17.9515 1.76004 17.201C1.74697 17.0996 1.73386 16.9982 1.72073 16.8968C1.69346 16.6857 1.66643 16.4745 1.63961 16.2632C1.60539 15.9938 1.57071 15.7244 1.53587 15.4551C1.50887 15.2462 1.48203 15.0373 1.45525 14.8284C1.44251 14.7291 1.42975 14.6298 1.41696 14.5305C1.14215 12.3927 1.14215 12.3927 1.77795 11.4913C1.90965 11.3217 2.0489 11.1684 2.2065 11.0226C2.14917 10.8689 2.07877 10.7256 2.00221 10.5806C1.4223 9.47274 1.30611 8.23143 1.67722 7.03299C2.07883 5.84014 2.93272 4.95381 4.03584 4.3775C4.3507 4.21184 4.64517 4.00099 4.89461 3.74691C4.99203 3.65166 4.99203 3.65166 5.07774 3.65166C5.08862 3.62741 5.09951 3.60315 5.11072 3.57817C5.17016 3.46778 5.24093 3.38077 5.32148 3.28472C5.44263 3.13647 5.54771 2.98848 5.64556 2.82403C6.22573 1.89392 7.16541 1.34922 8.20611 1.08039C9.31232 0.869142 10.4607 1.07177 11.3854 1.71735ZM6.88444 2.86907C6.69403 3.05456 6.54819 3.25685 6.40623 3.48024C6.20028 3.78989 5.97636 4.0673 5.72056 4.33733C5.68913 4.37103 5.65769 4.40472 5.62531 4.43944C5.27769 4.80116 4.87601 5.04292 4.44588 5.29324C3.48206 5.85639 2.83206 6.57744 2.53761 7.67328C2.32462 8.59856 2.5048 9.48394 2.97788 10.2941C3.01938 10.3522 3.0616 10.4099 3.10644 10.4655C3.41768 10.4461 3.68656 10.1697 3.89094 9.95256C4.18686 9.59783 4.27668 9.12027 4.39207 8.68437C4.42764 8.55214 4.46342 8.41997 4.49921 8.2878C4.51239 8.23907 4.51239 8.23907 4.52583 8.18936C4.58853 7.95819 4.6521 7.72729 4.718 7.497C4.7303 7.45276 4.7303 7.45276 4.74285 7.40763C4.8807 6.9323 5.16193 6.57011 5.58748 6.32202C6.0513 6.07932 6.42468 6.04289 6.94191 6.03811C7.42403 6.02901 7.84756 5.99449 8.29182 5.79438C8.33386 5.77582 8.3759 5.75725 8.41921 5.73813C8.64208 5.6278 8.82027 5.49197 9.00696 5.32834C9.66079 4.76815 10.4707 4.53491 11.3231 4.5856C11.5877 4.60972 11.8471 4.6638 12.1059 4.72302C12.0864 3.93826 11.6499 3.31803 11.1105 2.7862C9.90487 1.66577 8.06721 1.76564 6.88444 2.86907ZM9.52657 6.15328C8.93945 6.64309 8.16837 6.95428 7.40059 6.95747C7.34534 6.9583 7.2901 6.95913 7.23319 6.95998C7.14668 6.96122 7.06023 6.96216 6.97372 6.96218C6.53386 6.96294 6.16316 7.01316 5.83573 7.3291C5.7229 7.47593 5.67191 7.63752 5.61928 7.81272C5.61012 7.84263 5.60095 7.87254 5.59151 7.90336C5.52314 8.12987 5.46154 8.35793 5.40216 8.58695C5.39354 8.62014 5.38491 8.65333 5.37602 8.68753C5.34086 8.82319 5.30578 8.95886 5.2717 9.0948C5.07005 9.89579 4.76807 10.598 4.06732 11.0902C3.89383 11.1921 3.71293 11.2789 3.5322 11.3671C2.95388 11.6504 2.5888 11.9617 2.33506 12.5654C2.15792 13.1783 2.32603 13.9308 2.40805 14.5487C2.42016 14.6427 2.43224 14.7366 2.44429 14.8305C2.46947 15.026 2.495 15.2215 2.52081 15.417C2.55356 15.6651 2.58556 15.9133 2.61732 16.1616C2.64214 16.3552 2.6673 16.5487 2.69256 16.7423C2.70446 16.8337 2.71628 16.9251 2.72802 17.0165C2.78466 17.4563 2.8461 17.8935 2.93632 18.3279C2.94297 18.3601 2.94962 18.3923 2.95647 18.4254C3.11451 19.1509 3.48131 19.8064 3.96353 20.3649C3.98883 20.3964 4.01413 20.4279 4.0402 20.4603C4.66487 21.2126 5.59197 21.6995 6.53211 21.9183C6.56172 21.9254 6.59132 21.9324 6.62182 21.9396C7.11184 22.0453 7.62093 22.0431 8.12007 22.0449C8.17453 22.0451 8.22899 22.0454 8.2851 22.0456C8.39911 22.046 8.51311 22.0463 8.62713 22.0465C8.77235 22.0467 8.91757 22.0478 9.06279 22.049C9.20298 22.05 9.34318 22.0501 9.48338 22.0503C9.56086 22.0511 9.56086 22.0511 9.6399 22.0519C9.98376 22.051 10.2512 22.0331 10.5176 21.7951C10.6272 21.6158 10.6616 21.4741 10.6488 21.2648C10.5799 21.0618 10.4848 20.9527 10.306 20.8363C10.1381 20.7733 9.97922 20.735 9.8017 20.7121C9.75403 20.7058 9.70636 20.6995 9.65725 20.693C9.58071 20.6832 9.58071 20.6832 9.50263 20.6732C9.39312 20.6587 9.28361 20.6441 9.1741 20.6295C9.00263 20.607 8.83113 20.5846 8.65961 20.5624C7.09875 20.3595 7.09875 20.3595 6.56693 20.0756C6.5385 20.0608 6.51007 20.046 6.48077 20.0308C5.59738 19.5597 4.94979 18.8091 4.64267 17.8544C4.53989 17.5051 4.47146 17.1831 4.47088 16.8182C4.47056 16.7697 4.47056 16.7697 4.47023 16.7203C4.46961 16.6142 4.46931 16.5081 4.46908 16.402C4.46883 16.328 4.46858 16.2539 4.46834 16.1798C4.46789 16.0249 4.46764 15.87 4.46749 15.715C4.46725 15.5167 4.46622 15.3183 4.465 15.1199C4.4642 14.9671 4.46398 14.8143 4.46391 14.6614C4.46378 14.5883 4.46344 14.5151 4.46288 14.442C4.46215 14.3397 4.46223 14.2375 4.46251 14.1352C4.46191 14.0901 4.46191 14.0901 4.46131 14.0441C4.46289 13.858 4.4941 13.7428 4.60634 13.5939C4.75298 13.4839 4.89974 13.4926 5.07774 13.5082C5.19611 13.5608 5.26776 13.6004 5.33987 13.7085C5.39136 13.8441 5.38984 13.9619 5.39139 14.1069C5.39182 14.1366 5.39225 14.1663 5.39269 14.1969C5.39401 14.2948 5.39474 14.3926 5.39547 14.4905C5.39627 14.5584 5.39711 14.6264 5.39798 14.6944C5.40018 14.8731 5.40188 15.0517 5.40347 15.2304C5.40519 15.4128 5.40738 15.5952 5.40953 15.7776C5.41367 16.1353 5.41729 16.4931 5.42058 16.8508C5.48256 16.8191 5.48256 16.8191 5.54579 16.7867C5.60047 16.759 5.65516 16.7312 5.70984 16.7035C5.75061 16.6826 5.75061 16.6826 5.79221 16.6612C6.15335 16.4788 6.5257 16.4489 6.924 16.5373C7.2846 16.6588 7.53187 16.8565 7.79096 17.1294C8.07917 17.4245 8.46626 17.6537 8.88626 17.6697C9.00255 17.6703 9.1184 17.6688 9.23462 17.665C9.22534 17.6374 9.21606 17.6097 9.2065 17.5812C9.02141 16.9548 9.03521 16.3278 9.32033 15.7366C9.34468 15.7008 9.34468 15.7008 9.36952 15.6643C9.4675 15.5183 9.49578 15.4571 9.46128 15.2818C9.43892 15.2283 9.41506 15.1755 9.38997 15.1232C9.37103 15.0808 9.37103 15.0808 9.35172 15.0375C9.31426 14.9554 9.27494 14.8745 9.23462 14.7938C9.21683 14.7576 9.19904 14.7213 9.18072 14.684C8.98402 14.3277 8.70991 14.0139 8.45805 13.6958C8.33026 13.534 8.20395 13.3711 8.07755 13.2082C7.92596 13.013 7.77416 12.818 7.62155 12.6236C7.47252 12.4336 7.32455 12.2428 7.17761 12.0511C7.15636 12.0235 7.13511 11.9959 7.11322 11.9674C6.63343 11.3383 6.4184 10.7466 6.49194 9.95126C6.52886 9.79939 6.57563 9.65646 6.62787 9.50932C6.67509 9.35606 6.65842 9.24877 6.6205 9.09417C6.54614 8.61235 6.54614 8.61235 6.66336 8.4085C6.83279 8.32378 6.99008 8.29935 7.17761 8.32279C7.31153 8.37636 7.31153 8.37636 7.43473 8.49421C7.48467 8.62163 7.5227 8.75075 7.56229 8.88174C7.6974 9.27211 8.11421 9.54168 8.46324 9.73698C8.63143 9.80096 8.75741 9.80836 8.92895 9.7549C9.06905 9.69124 9.19429 9.60679 9.32351 9.52355C9.59583 9.34991 9.81271 9.22352 10.1346 9.17988C10.1409 9.13325 10.1472 9.08663 10.1536 9.03859C10.2687 8.25746 10.5868 7.76465 11.1979 7.2675C11.4628 7.05191 11.6054 6.86152 11.6773 6.5229C11.6814 6.40103 11.6833 6.28047 11.6827 6.15864C11.6828 6.1261 11.683 6.09356 11.6832 6.06004C11.6829 5.90708 11.6758 5.77007 11.6345 5.62296C10.8757 5.33392 10.1071 5.65657 9.52657 6.15328ZM11.528 14.497C11.2993 14.7876 11.1636 15.0967 11.0462 15.4458C10.9619 15.6303 10.8404 15.6894 10.6595 15.7634C10.4075 15.8856 10.208 16.104 10.0832 16.3536C9.99189 16.6502 10.0076 16.9738 10.1372 17.2553C10.308 17.5512 10.5299 17.6963 10.8316 17.8401C10.938 17.8962 10.9854 17.9402 11.0345 18.0507C11.0562 18.2782 11.0566 18.4249 10.9059 18.6078C10.7185 18.7244 10.5575 18.6965 10.3488 18.6507C10.3029 18.6268 10.2569 18.603 10.2096 18.5784C10.0026 18.506 9.86943 18.5446 9.6573 18.5837C8.87471 18.6977 8.14538 18.5671 7.47759 18.1364C7.33236 18.0252 7.20258 17.9015 7.07265 17.7729C6.82576 17.5272 6.82576 17.5272 6.50265 17.4374C6.31262 17.4405 6.20889 17.4965 6.06339 17.6222C5.91787 17.7907 5.86358 17.92 5.87524 18.1386C5.90323 18.2783 5.97559 18.3695 6.06339 18.4793C6.08991 18.5138 6.11643 18.5482 6.14375 18.5837C6.37743 18.8655 6.67588 19.0551 6.99816 19.2212C7.02449 19.2351 7.05083 19.2491 7.07796 19.2634C7.51424 19.4785 8.01527 19.53 8.4922 19.5908C8.6021 19.6054 8.712 19.6201 8.8219 19.6347C8.99274 19.6571 9.1636 19.6794 9.33448 19.7015C9.50107 19.7231 9.66757 19.7454 9.83408 19.7676C9.88493 19.774 9.93578 19.7805 9.98817 19.7871C10.2561 19.8231 10.4846 19.8771 10.7345 19.9792C10.7769 19.9792 10.8194 19.9792 10.8631 19.9792C10.9244 19.8916 10.9772 19.8069 11.0291 19.714C11.2405 19.3394 11.5033 19.1005 11.8996 18.9373C12.0578 18.9088 12.1871 18.9115 12.3469 18.9185C12.5645 18.9283 12.5645 18.9283 12.7326 18.8007C12.7474 18.7772 12.7621 18.7536 12.7773 18.7294C12.9725 18.4604 13.3218 18.2952 13.6084 18.1364C14.3 17.7509 14.754 17.2402 14.9831 16.4728C15.1103 15.9306 15.0571 15.3381 14.7854 14.8524C14.4638 14.3551 14.0285 14.0295 13.4558 13.8805C12.7509 13.7503 12.0184 13.9602 11.528 14.497ZM11.9246 20.0451C11.8713 20.1252 11.8221 20.2067 11.7737 20.2899C11.7567 20.3174 11.7396 20.345 11.722 20.3734C11.6142 20.5551 11.56 20.7069 11.5488 20.922C11.6014 21.0831 11.6489 21.1578 11.7845 21.2595C12.0492 21.3446 12.3006 21.3593 12.5532 21.2354C12.7721 21.0378 12.9026 20.8622 12.9362 20.5658C12.9129 20.337 12.8437 20.1602 12.6795 19.9956C12.5568 19.8993 12.4703 19.8541 12.3148 19.8292C12.1492 19.858 12.0319 19.9109 11.9246 20.0451Z" fill="white" stroke="white" stroke-width="0.3"/>
<path d="M19.3604 6.74983C19.4927 6.81037 19.4927 6.81037 19.5889 6.76356C19.6217 6.74646 19.6546 6.72936 19.6885 6.71174C20.2198 6.46531 20.8115 6.4582 21.3672 6.6385C21.9387 6.87232 22.3603 7.33865 22.5989 7.89918C22.7755 8.38041 22.7606 9.0143 22.5695 9.48652C22.3583 9.8648 22.1026 10.1701 21.7969 10.4758C21.7366 10.5367 21.7366 10.5367 21.6751 10.5988C21.5904 10.6839 21.5056 10.7689 21.4206 10.8537C21.2912 10.983 21.1629 11.1133 21.0346 11.2437C20.9518 11.3267 20.8691 11.4096 20.7862 11.4924C20.7482 11.5312 20.7103 11.5699 20.6712 11.6098C20.3257 11.9512 19.9801 12.1317 19.4922 12.1522C18.8449 12.1414 18.4529 11.7631 18.0167 11.3282C17.9794 11.2912 17.9421 11.2542 17.9037 11.2161C17.8253 11.1382 17.7471 11.0602 17.669 10.9821C17.5503 10.8636 17.4309 10.7459 17.3114 10.6282C17.2349 10.552 17.1585 10.4758 17.0822 10.3995C17.0292 10.3475 17.0292 10.3475 16.9752 10.2945C16.5068 9.82214 16.2566 9.31976 16.2461 8.65412C16.2498 8.12239 16.4033 7.68317 16.7354 7.26545C16.7578 7.23663 16.7802 7.20781 16.8033 7.17811C17.1189 6.81951 17.6363 6.58437 18.1052 6.52241C18.561 6.49805 18.9412 6.57458 19.3604 6.74983ZM17.5634 7.97444C17.3498 8.21508 17.3284 8.46026 17.3215 8.7682C17.3885 9.16563 17.6439 9.42164 17.9184 9.69545C17.9558 9.7333 17.9933 9.77115 18.0319 9.81016C18.1108 9.88961 18.19 9.96882 18.2694 10.0478C18.3906 10.1687 18.5105 10.2909 18.6304 10.4131C18.7074 10.4904 18.7846 10.5676 18.8618 10.6447C18.8974 10.6812 18.9331 10.7177 18.9698 10.7553C19.1197 10.9026 19.2363 11.0032 19.4325 11.0826C19.6808 11.0516 19.7995 10.9083 19.9697 10.7342C20.029 10.6773 20.0884 10.6205 20.1478 10.5637C20.2085 10.5039 20.2691 10.444 20.3295 10.3839C20.362 10.3518 20.3944 10.3196 20.4278 10.2865C20.4957 10.219 20.5634 10.1516 20.6312 10.084C20.7346 9.98105 20.8385 9.87858 20.9425 9.7761C21.0087 9.71019 21.0749 9.64424 21.1411 9.57826C21.172 9.54793 21.2029 9.5176 21.2347 9.48635C21.4845 9.23532 21.6303 9.01947 21.6338 8.65412C21.6248 8.31118 21.5291 8.13111 21.2989 7.88673C21.0969 7.6966 20.9032 7.5959 20.6185 7.5923C20.3014 7.61351 20.042 7.72073 19.8057 7.93342C19.6418 8.04815 19.5078 8.04811 19.3135 8.01545C19.1963 7.95979 19.1963 7.95979 19.0791 7.87483C18.5522 7.49362 18.0422 7.5166 17.5634 7.97444Z" fill="white"/>
</svg>
