<svg width="24" height="24" viewBox="0 0 24 24" fill="none" xmlns="http://www.w3.org/2000/svg">
<path d="M15.25 10.7502C16.4926 10.7502 17.5 9.91077 17.5 8.87524C17.5 7.83971 16.4926 7.00024 15.25 7.00024C14.0074 7.00024 13 6.16077 13 5.12524C13 4.08971 14.0074 3.25024 15.25 3.25024M15.25 10.7502V11.5002M15.25 10.7502C14.3994 10.7502 13.659 10.3569 13.2765 9.77654M15.25 2.50024V3.25024M15.25 3.25024C15.9526 3.25024 16.58 3.51863 16.9926 3.93909" stroke="#111827" stroke-width="1.5" stroke-linecap="round"/>
<path d="M5 20.3884H7.25993C8.27079 20.3884 9.29253 20.4937 10.2763 20.6964C12.0166 21.0549 13.8488 21.0983 15.6069 20.8138C16.4738 20.6734 17.326 20.4589 18.0975 20.0865C18.7939 19.7504 19.6469 19.2766 20.2199 18.7459C20.7921 18.216 21.388 17.3487 21.8109 16.6707C22.1736 16.0894 21.9982 15.3762 21.4245 14.943C20.7873 14.4619 19.8417 14.462 19.2046 14.9433L17.3974 16.3084C16.697 16.8375 15.932 17.3245 15.0206 17.4699C14.911 17.4874 14.7962 17.5033 14.6764 17.5172M12.7518 17.5326C13.4312 17.5968 14.0434 17.5829 14.5668 17.5292C14.6038 17.5254 14.6403 17.5214 14.6764 17.5172M14.6764 17.5172C14.8222 17.486 14.9669 17.396 15.1028 17.2775C15.746 16.7161 15.7866 15.77 15.2285 15.1431C15.0991 14.9977 14.9475 14.8764 14.7791 14.7759C11.9817 13.1074 7.62942 14.3782 5 16.2429M14.6764 17.5172C14.6399 17.525 14.6033 17.5292 14.5668 17.5292" stroke="#111827" stroke-width="1.5" stroke-linecap="round"/>
<rect x="2" y="14" width="3" height="8" rx="1.5" stroke="#111827" stroke-width="1.5"/>
</svg>
