<svg width="28" height="28" viewBox="0 0 28 28" fill="none" xmlns="http://www.w3.org/2000/svg">
<ellipse cx="11.6667" cy="20.4163" rx="8.16667" ry="4.08333" stroke="white" stroke-width="1.5" stroke-linejoin="round"/>
<circle cx="11.6667" cy="8.16667" r="4.66667" stroke="white" stroke-width="1.5" stroke-linejoin="round"/>
<path d="M17.9648 5.1084C20.0937 5.33967 21.751 7.14365 21.751 9.33398C21.7508 11.6809 19.8479 13.5838 17.501 13.584C17.0843 13.584 16.6813 13.5229 16.3008 13.4111C16.7439 13.0193 17.1384 12.5737 17.4707 12.082C17.4807 12.0821 17.491 12.084 17.501 12.084C19.0194 12.0838 20.2508 10.8524 20.251 9.33398C20.251 8.17947 19.5387 7.19186 18.5303 6.78418C18.4123 6.19549 18.2204 5.63365 17.9648 5.1084Z" fill="white"/>
<path d="M18.6387 15.6201C20.2025 15.722 21.6257 16.0321 22.7393 16.4961C23.4266 16.7826 24.0327 17.1428 24.4775 17.5811C24.9249 18.0219 25.251 18.5873 25.251 19.251C25.2507 19.9144 24.9248 20.4792 24.4775 20.9199C24.0326 21.3582 23.4267 21.7184 22.7393 22.0049C22.408 22.1429 22.0486 22.2657 21.667 22.375C21.9581 21.8195 22.1268 21.2319 22.1582 20.6221C22.1594 20.6216 22.1609 20.6216 22.1621 20.6211C22.7411 20.3798 23.1614 20.1111 23.4248 19.8516C23.685 19.5952 23.7507 19.3924 23.751 19.251C23.751 19.1096 23.6853 18.9061 23.4248 18.6494C23.1614 18.39 22.741 18.1221 22.1621 17.8809C21.823 17.7396 21.4403 17.6148 21.0234 17.5059C20.4249 16.7891 19.6138 16.1497 18.6387 15.6201Z" fill="white"/>
</svg>
