<svg width="20" height="20" viewBox="0 0 20 20" fill="none" xmlns="http://www.w3.org/2000/svg">
<path fill-rule="evenodd" clip-rule="evenodd" d="M2.29163 9.58329C2.29163 13.6104 5.55622 16.875 9.58329 16.875C13.6104 16.875 16.875 13.6104 16.875 9.58329C16.875 5.55622 13.6104 2.29163 9.58329 2.29163C5.55622 2.29163 2.29163 5.55622 2.29163 9.58329ZM9.58329 18.125C4.86586 18.125 1.04163 14.3007 1.04163 9.58329C1.04163 4.86586 4.86586 1.04163 9.58329 1.04163C14.3007 1.04163 18.125 4.86586 18.125 9.58329C18.125 11.7171 17.3426 13.6681 16.049 15.1651L18.7752 17.8914C19.0193 18.1354 19.0193 18.5312 18.7752 18.7752C18.5312 19.0193 18.1354 19.0193 17.8914 18.7752L15.1651 16.049C13.6681 17.3426 11.7171 18.125 9.58329 18.125Z" fill="#111827"/>
</svg>
