<svg width="28" height="28" viewBox="0 0 28 28" fill="none" xmlns="http://www.w3.org/2000/svg">
<ellipse cx="11.6667" cy="20.4167" rx="8.16667" ry="4.08333" stroke="white" stroke-width="1.5" stroke-linejoin="round"/>
<circle cx="11.6667" cy="8.16667" r="4.66667" stroke="white" stroke-width="1.5" stroke-linejoin="round"/>
<path d="M17.9642 5.10815C20.0931 5.33942 21.7504 7.14341 21.7504 9.33374C21.7501 11.6806 19.8473 13.5835 17.5004 13.5837C17.0836 13.5837 16.6807 13.5227 16.3002 13.4109C16.7433 13.019 17.1378 12.5734 17.4701 12.0818C17.48 12.0819 17.4904 12.0837 17.5004 12.0837C19.0188 12.0835 20.2501 10.8522 20.2504 9.33374C20.2504 8.17923 19.5381 7.19162 18.5297 6.78394C18.4117 6.19525 18.2198 5.63341 17.9642 5.10815Z" fill="white"/>
<path d="M18.6381 15.6199C20.2019 15.7217 21.6251 16.0319 22.7386 16.4958C23.426 16.7823 24.0321 17.1426 24.4769 17.5808C24.9243 18.0217 25.2504 18.587 25.2504 19.2507C25.2501 19.9142 24.9242 20.4789 24.4769 20.9197C24.032 21.3579 23.4261 21.7182 22.7386 22.0046C22.4073 22.1427 22.048 22.2655 21.6664 22.3748C21.9575 21.8193 22.1262 21.2317 22.1576 20.6218C22.1588 20.6213 22.1603 20.6213 22.1615 20.6208C22.7405 20.3796 23.1608 20.1108 23.4242 19.8513C23.6844 19.595 23.7501 19.3921 23.7504 19.2507C23.7504 19.1094 23.6846 18.9059 23.4242 18.6492C23.1608 18.3897 22.7404 18.1219 22.1615 17.8806C21.8224 17.7393 21.4397 17.6146 21.0228 17.5056C20.4243 16.7889 19.6132 16.1494 18.6381 15.6199Z" fill="white"/>
</svg>
