<svg width="20" height="20" viewBox="0 0 20 20" fill="none" xmlns="http://www.w3.org/2000/svg">
<path d="M7.22206 9.36884C6.83757 9.1145 6.40032 8.93199 5.92997 8.84072C5.70609 8.79728 5.4747 8.77451 5.23793 8.77451C3.26549 8.77451 1.6665 10.3547 1.6665 12.3039C1.6665 14.2532 3.26549 15.8333 5.23793 15.8333M11.984 6.68934C12.4804 6.51593 13.0147 6.42157 13.5713 6.42157C14.1168 6.42157 14.641 6.51223 15.1291 6.67915M5.92997 8.84072C5.73906 8.3315 5.63476 7.78073 5.63476 7.20588C5.63476 4.6069 7.76674 2.5 10.3967 2.5C12.8464 2.5 14.8641 4.32809 15.1291 6.67915M15.1291 6.67915C16.994 7.31686 18.3332 9.0676 18.3332 11.1275C18.3332 13.3833 16.727 15.2684 14.5832 15.7269" stroke="#111827" stroke-width="1.5" stroke-linecap="round"/>
<path d="M10.0002 13.3335V18.3335M8.3335 15.0002L10.0002 13.3335L11.6668 15.0002" stroke="#111827" stroke-width="1.5" stroke-linecap="round" stroke-linejoin="round"/>
</svg>
